<?xml version="1.0" encoding="UTF-8"?><svg xmlns="http://www.w3.org/2000/svg" xmlns:xlink="http://www.w3.org/1999/xlink" fill-opacity="1" color-rendering="auto" color-interpolation="auto" text-rendering="auto" stroke="black" stroke-linecap="square" width="1056" stroke-miterlimit="10" shape-rendering="auto" stroke-opacity="1" fill="black" stroke-dasharray="none" font-weight="normal" stroke-width="1" height="714" font-family="'Dialog'" font-style="normal" stroke-linejoin="miter" font-size="12px" stroke-dashoffset="0" image-rendering="auto">
  <!--Generated by ySVG 2.5-->
  <defs id="genericDefs"/>
  <g>
    <defs id="defs1">
      <clipPath clipPathUnits="userSpaceOnUse" id="clipPath1">
        <path d="M0 0 L1056 0 L1056 714 L0 714 L0 0 Z"/>
      </clipPath>
      <clipPath clipPathUnits="userSpaceOnUse" id="clipPath2">
        <path d="M128 292 L1184 292 L1184 1006 L128 1006 L128 292 Z"/>
      </clipPath>
      <clipPath clipPathUnits="userSpaceOnUse" id="clipPath3">
        <path d="M705 463 L705 592 L934 592 L934 463 Z"/>
      </clipPath>
      <clipPath clipPathUnits="userSpaceOnUse" id="clipPath4">
        <path d="M995 310 L995 399 L1168 399 L1168 310 Z"/>
      </clipPath>
      <clipPath clipPathUnits="userSpaceOnUse" id="clipPath5">
        <path d="M995 463 L995 537 L1168 537 L1168 463 Z"/>
      </clipPath>
      <clipPath clipPathUnits="userSpaceOnUse" id="clipPath6">
        <path d="M705 655 L705 729 L934 729 L934 655 Z"/>
      </clipPath>
      <clipPath clipPathUnits="userSpaceOnUse" id="clipPath7">
        <path d="M1029 634 L1029 747 L1168 747 L1168 634 Z"/>
      </clipPath>
      <clipPath clipPathUnits="userSpaceOnUse" id="clipPath8">
        <path d="M705 789 L705 851 L934 851 L934 789 Z"/>
      </clipPath>
      <clipPath clipPathUnits="userSpaceOnUse" id="clipPath9">
        <path d="M1029 777 L1029 862 L1168 862 L1168 777 Z"/>
      </clipPath>
      <clipPath clipPathUnits="userSpaceOnUse" id="clipPath10">
        <path d="M143 775 L143 989 L456 989 L456 775 Z"/>
      </clipPath>
      <clipPath clipPathUnits="userSpaceOnUse" id="clipPath11">
        <path d="M143 591 L143 692 L456 692 L456 591 Z"/>
      </clipPath>
      <clipPath clipPathUnits="userSpaceOnUse" id="clipPath12">
        <path d="M143 310 L143 508 L551 508 L551 310 Z"/>
      </clipPath>
      <clipPath clipPathUnits="userSpaceOnUse" id="clipPath13">
        <path d="M0 0 L0 15 L81 15 L81 0 Z"/>
      </clipPath>
      <clipPath clipPathUnits="userSpaceOnUse" id="clipPath14">
        <path d="M0 0 L0 15 L75 15 L75 0 Z"/>
      </clipPath>
      <clipPath clipPathUnits="userSpaceOnUse" id="clipPath15">
        <path d="M0 0 L0 15 L156 15 L156 0 Z"/>
      </clipPath>
      <clipPath clipPathUnits="userSpaceOnUse" id="clipPath16">
        <path d="M0 0 L0 30 L117 30 L117 0 Z"/>
      </clipPath>
      <clipPath clipPathUnits="userSpaceOnUse" id="clipPath17">
        <path d="M0 0 L0 15 L60 15 L60 0 Z"/>
      </clipPath>
      <clipPath clipPathUnits="userSpaceOnUse" id="clipPath18">
        <path d="M0 0 L0 30 L163 30 L163 0 Z"/>
      </clipPath>
      <clipPath clipPathUnits="userSpaceOnUse" id="clipPath19">
        <path d="M0 0 L0 30 L149 30 L149 0 Z"/>
      </clipPath>
    </defs>
    <g fill="white" text-rendering="geometricPrecision" shape-rendering="geometricPrecision" transform="translate(-128,-292)" stroke="white">
      <rect x="128" width="1056" height="714" y="292" clip-path="url(#clipPath2)" stroke="none"/>
    </g>
    <g fill="white" text-rendering="geometricPrecision" shape-rendering="geometricPrecision" transform="matrix(1,0,0,1,-128,-292)" stroke="white">
      <rect x="705.375" width="229.25" height="129" y="463.9509" clip-path="url(#clipPath2)" stroke="none"/>
    </g>
    <g text-rendering="geometricPrecision" stroke-miterlimit="1.45" shape-rendering="geometricPrecision" transform="matrix(1,0,0,1,-128,-292)" stroke-linecap="butt">
      <rect fill="none" x="705.375" width="229.25" height="129" y="463.9509" clip-path="url(#clipPath2)"/>
      <text x="791.8831" font-size="13px" y="481.0178" clip-path="url(#clipPath3)" font-family="sans-serif" stroke="none" font-weight="bold" xml:space="preserve">Commit</text>
      <line stroke-linecap="square" clip-path="url(#clipPath3)" fill="none" x1="706" x2="933" y1="489" y2="489" stroke-miterlimit="10"/>
      <text x="710.375" xml:space="preserve" y="505.2224" clip-path="url(#clipPath3)" font-family="sans-serif" stroke="none">id: String</text>
      <text x="710.375" xml:space="preserve" y="519.1912" clip-path="url(#clipPath3)" font-family="sans-serif" stroke="none">author: String</text>
      <text x="710.375" xml:space="preserve" y="533.1599" clip-path="url(#clipPath3)" font-family="sans-serif" stroke="none">message: String</text>
      <text x="710.375" xml:space="preserve" y="547.1287" clip-path="url(#clipPath3)" font-family="sans-serif" stroke="none">dateTime: LocalDateTime</text>
      <text x="710.375" xml:space="preserve" y="561.0974" clip-path="url(#clipPath3)" font-family="sans-serif" stroke="none">parentIds: List&lt;String&gt;</text>
      <line stroke-linecap="square" clip-path="url(#clipPath3)" fill="none" x1="706" x2="933" y1="568" y2="568" stroke-miterlimit="10"/>
      <text x="710.375" xml:space="preserve" y="585.0662" clip-path="url(#clipPath3)" font-family="sans-serif" stroke="none">isMerge(): boolean</text>
    </g>
    <g fill="white" text-rendering="geometricPrecision" shape-rendering="geometricPrecision" transform="matrix(1,0,0,1,-128,-292)" stroke="white">
      <rect x="995.625" width="173" height="89.72" y="310" clip-path="url(#clipPath2)" stroke="none"/>
    </g>
    <g text-rendering="geometricPrecision" stroke-miterlimit="1.45" shape-rendering="geometricPrecision" transform="matrix(1,0,0,1,-128,-292)" stroke-linecap="butt">
      <rect fill="none" x="995.625" width="173" height="89.72" y="310" clip-path="url(#clipPath2)"/>
      <text x="1062.9329" font-size="13px" y="327.0669" clip-path="url(#clipPath4)" font-family="sans-serif" stroke="none" font-weight="bold" xml:space="preserve">Issue</text>
      <line stroke-linecap="square" clip-path="url(#clipPath4)" fill="none" x1="996" x2="1167" y1="335" y2="335" stroke-miterlimit="10"/>
      <text x="1000.625" xml:space="preserve" y="351.2715" clip-path="url(#clipPath4)" font-family="sans-serif" stroke="none">id: String</text>
      <text x="1000.625" xml:space="preserve" y="365.2402" clip-path="url(#clipPath4)" font-family="sans-serif" stroke="none">author: String</text>
      <text x="1000.625" xml:space="preserve" y="379.209" clip-path="url(#clipPath4)" font-family="sans-serif" stroke="none">title: String</text>
      <text x="1000.625" xml:space="preserve" y="393.1777" clip-path="url(#clipPath4)" font-family="sans-serif" stroke="none">dateTime: LocalDateTime</text>
      <line stroke-linecap="square" clip-path="url(#clipPath4)" fill="none" x1="996" x2="1167" y1="401" y2="401" stroke-miterlimit="10"/>
    </g>
    <g fill="white" text-rendering="geometricPrecision" shape-rendering="geometricPrecision" transform="matrix(1,0,0,1,-128,-292)" stroke="white">
      <rect x="995.625" width="173" height="74" y="463.9509" clip-path="url(#clipPath2)" stroke="none"/>
    </g>
    <g text-rendering="geometricPrecision" stroke-miterlimit="1.45" shape-rendering="geometricPrecision" transform="matrix(1,0,0,1,-128,-292)" stroke-linecap="butt">
      <rect fill="none" x="995.625" width="173" height="74" y="463.9509" clip-path="url(#clipPath2)"/>
      <text x="1047.2002" font-size="13px" y="481.0178" clip-path="url(#clipPath5)" font-family="sans-serif" stroke="none" font-weight="bold" xml:space="preserve">Comment</text>
      <line stroke-linecap="square" clip-path="url(#clipPath5)" fill="none" x1="996" x2="1167" y1="489" y2="489" stroke-miterlimit="10"/>
      <text x="1000.625" xml:space="preserve" y="505.2224" clip-path="url(#clipPath5)" font-family="sans-serif" stroke="none">author: String</text>
      <text x="1000.625" xml:space="preserve" y="519.1912" clip-path="url(#clipPath5)" font-family="sans-serif" stroke="none">message: String</text>
      <text x="1000.625" xml:space="preserve" y="533.1599" clip-path="url(#clipPath5)" font-family="sans-serif" stroke="none">dateTime: LocalDateTime</text>
      <line stroke-linecap="square" clip-path="url(#clipPath5)" fill="none" x1="996" x2="1167" y1="540" y2="540" stroke-miterlimit="10"/>
    </g>
    <g fill="white" text-rendering="geometricPrecision" shape-rendering="geometricPrecision" transform="matrix(1,0,0,1,-128,-292)" stroke="white">
      <rect x="705.375" width="229.25" height="74" y="655.25" clip-path="url(#clipPath2)" stroke="none"/>
    </g>
    <g text-rendering="geometricPrecision" stroke-miterlimit="1.45" shape-rendering="geometricPrecision" transform="matrix(1,0,0,1,-128,-292)" stroke-linecap="butt">
      <rect fill="none" x="705.375" width="229.25" height="74" y="655.25" clip-path="url(#clipPath2)"/>
      <text x="779.2227" font-size="13px" y="672.3169" clip-path="url(#clipPath6)" font-family="sans-serif" stroke="none" font-weight="bold" xml:space="preserve">FileChange</text>
      <line stroke-linecap="square" clip-path="url(#clipPath6)" fill="none" x1="706" x2="933" y1="680" y2="680" stroke-miterlimit="10"/>
      <line stroke-linecap="square" clip-path="url(#clipPath6)" fill="none" x1="706" x2="933" y1="690" y2="690" stroke-miterlimit="10"/>
      <text x="710.375" xml:space="preserve" y="706.5215" clip-path="url(#clipPath6)" font-family="sans-serif" stroke="none">computeDiff(): List&lt;LineChange&gt;</text>
      <text x="710.375" xml:space="preserve" y="720.4902" clip-path="url(#clipPath6)" font-family="sans-serif" stroke="none">computeLineDelta(): int</text>
    </g>
    <g fill="white" text-rendering="geometricPrecision" shape-rendering="geometricPrecision" transform="matrix(1,0,0,1,-128,-292)" stroke="white">
      <rect x="1029.625" width="139" height="113" y="634.75" clip-path="url(#clipPath2)" stroke="none"/>
    </g>
    <g text-rendering="geometricPrecision" stroke-miterlimit="1.45" shape-rendering="geometricPrecision" transform="matrix(1,0,0,1,-128,-292)" stroke-linecap="butt">
      <rect fill="none" x="1029.625" width="139" height="113" y="634.75" clip-path="url(#clipPath2)"/>
      <text x="1040.5459" xml:space="preserve" y="650.8887" clip-path="url(#clipPath7)" font-family="sans-serif" stroke="none">&lt;&lt;enumeration&gt;&gt;</text>
      <text x="1081.3928" font-size="13px" y="674.7856" clip-path="url(#clipPath7)" font-family="sans-serif" stroke="none" font-weight="bold" xml:space="preserve">Type</text>
      <line stroke-linecap="square" clip-path="url(#clipPath7)" fill="none" x1="1030" x2="1167" y1="682" y2="682" stroke-miterlimit="10"/>
      <text x="1034.625" xml:space="preserve" y="698.9902" clip-path="url(#clipPath7)" font-family="sans-serif" stroke="none">ADD</text>
      <text x="1034.625" xml:space="preserve" y="712.959" clip-path="url(#clipPath7)" font-family="sans-serif" stroke="none">REMOVE</text>
      <text x="1034.625" xml:space="preserve" y="726.9277" clip-path="url(#clipPath7)" font-family="sans-serif" stroke="none">MODIFY</text>
      <text x="1034.625" xml:space="preserve" y="740.8965" clip-path="url(#clipPath7)" font-family="sans-serif" stroke="none">RELOCATE</text>
      <line stroke-linecap="square" clip-path="url(#clipPath7)" fill="none" x1="1030" x2="1167" y1="748" y2="748" stroke-miterlimit="10"/>
    </g>
    <g fill="white" text-rendering="geometricPrecision" shape-rendering="geometricPrecision" transform="matrix(1,0,0,1,-128,-292)" stroke="white">
      <rect x="705.375" width="229.25" height="62.5" y="789.5491" clip-path="url(#clipPath2)" stroke="none"/>
    </g>
    <g text-rendering="geometricPrecision" stroke-miterlimit="1.45" shape-rendering="geometricPrecision" transform="matrix(1,0,0,1,-128,-292)" stroke-linecap="butt">
      <rect fill="none" x="705.375" width="229.25" height="62.5" y="789.5491" clip-path="url(#clipPath2)"/>
      <text x="777.1216" font-size="13px" y="806.616" clip-path="url(#clipPath8)" font-family="sans-serif" stroke="none" font-weight="bold" xml:space="preserve">LineChange</text>
      <line stroke-linecap="square" clip-path="url(#clipPath8)" fill="none" x1="706" x2="933" y1="814" y2="814" stroke-miterlimit="10"/>
      <text x="710.375" xml:space="preserve" y="830.8206" clip-path="url(#clipPath8)" font-family="sans-serif" stroke="none">line: int</text>
      <text x="710.375" xml:space="preserve" y="844.7893" clip-path="url(#clipPath8)" font-family="sans-serif" stroke="none">content: String</text>
      <line stroke-linecap="square" clip-path="url(#clipPath8)" fill="none" x1="706" x2="933" y1="852" y2="852" stroke-miterlimit="10"/>
    </g>
    <g fill="white" text-rendering="geometricPrecision" shape-rendering="geometricPrecision" transform="matrix(1,0,0,1,-128,-292)" stroke="white">
      <rect x="1029.625" width="139" height="85.2" y="777.7991" clip-path="url(#clipPath2)" stroke="none"/>
    </g>
    <g text-rendering="geometricPrecision" stroke-miterlimit="1.45" shape-rendering="geometricPrecision" transform="matrix(1,0,0,1,-128,-292)" stroke-linecap="butt">
      <rect fill="none" x="1029.625" width="139" height="85.2" y="777.7991" clip-path="url(#clipPath2)"/>
      <text x="1040.5459" xml:space="preserve" y="793.9377" clip-path="url(#clipPath9)" font-family="sans-serif" stroke="none">&lt;&lt;enumeration&gt;&gt;</text>
      <text x="1081.3928" font-size="13px" y="817.8347" clip-path="url(#clipPath9)" font-family="sans-serif" stroke="none" font-weight="bold" xml:space="preserve">Type</text>
      <line stroke-linecap="square" clip-path="url(#clipPath9)" fill="none" x1="1030" x2="1167" y1="825" y2="825" stroke-miterlimit="10"/>
      <text x="1034.625" xml:space="preserve" y="842.0393" clip-path="url(#clipPath9)" font-family="sans-serif" stroke="none">INSERT</text>
      <text x="1034.625" xml:space="preserve" y="856.0081" clip-path="url(#clipPath9)" font-family="sans-serif" stroke="none">DELETE</text>
      <line stroke-linecap="square" clip-path="url(#clipPath9)" fill="none" x1="1030" x2="1167" y1="863" y2="863" stroke-miterlimit="10"/>
    </g>
    <g fill="white" text-rendering="geometricPrecision" shape-rendering="geometricPrecision" transform="matrix(1,0,0,1,-128,-292)" stroke="white">
      <rect x="143.75" width="313.25" height="214.5" y="775.75" clip-path="url(#clipPath2)" stroke="none"/>
    </g>
    <g text-rendering="geometricPrecision" stroke-miterlimit="1.45" shape-rendering="geometricPrecision" transform="matrix(1,0,0,1,-128,-292)" stroke-linecap="butt">
      <rect fill="none" x="143.75" width="313.25" height="214.5" y="775.75" clip-path="url(#clipPath2)"/>
      <text x="272.5881" font-size="13px" y="792.8169" clip-path="url(#clipPath10)" font-family="sans-serif" stroke="none" font-weight="bold" xml:space="preserve">VCSFile</text>
      <line stroke-linecap="square" clip-path="url(#clipPath10)" fill="none" x1="144" x2="456" y1="800" y2="800" stroke-miterlimit="10"/>
      <text x="148.75" xml:space="preserve" y="817.0215" clip-path="url(#clipPath10)" font-family="sans-serif" stroke="none">path: String</text>
      <text x="148.75" xml:space="preserve" y="830.9902" clip-path="url(#clipPath10)" font-family="sans-serif" stroke="none">relativePath: String</text>
      <text x="148.75" xml:space="preserve" y="844.959" clip-path="url(#clipPath10)" font-family="sans-serif" stroke="none">charset: Charset [0..1]</text>
      <line stroke-linecap="square" clip-path="url(#clipPath10)" fill="none" x1="144" x2="456" y1="852" y2="852" stroke-miterlimit="10"/>
      <text x="148.75" xml:space="preserve" y="868.9277" clip-path="url(#clipPath10)" font-family="sans-serif" stroke="none">readAllBytes(): byte[]</text>
      <text x="148.75" xml:space="preserve" y="882.8965" clip-path="url(#clipPath10)" font-family="sans-serif" stroke="none">readContent(): String</text>
      <text x="148.75" xml:space="preserve" y="896.8652" clip-path="url(#clipPath10)" font-family="sans-serif" stroke="none">readLinesWithEOL(): List&lt;String&gt;</text>
      <text x="148.75" xml:space="preserve" y="910.834" clip-path="url(#clipPath10)" font-family="sans-serif" stroke="none">toFile(): File</text>
      <text x="148.75" xml:space="preserve" y="924.8027" clip-path="url(#clipPath10)" font-family="sans-serif" stroke="none">toRelativeFile(): File</text>
      <text x="148.75" xml:space="preserve" y="938.7715" clip-path="url(#clipPath10)" font-family="sans-serif" stroke="none">toPath(): Path</text>
      <text x="148.75" xml:space="preserve" y="952.7402" clip-path="url(#clipPath10)" font-family="sans-serif" stroke="none">toRelativePath(): Path</text>
      <text x="148.75" xml:space="preserve" y="966.709" clip-path="url(#clipPath10)" font-family="sans-serif" stroke="none">mapOffset(offset: int, tabSize: int): Position</text>
      <text x="148.75" xml:space="preserve" y="980.6777" clip-path="url(#clipPath10)" font-family="sans-serif" stroke="none">mapPosition(position: Position): int</text>
    </g>
    <g fill="white" text-rendering="geometricPrecision" shape-rendering="geometricPrecision" transform="matrix(1,0,0,1,-128,-292)" stroke="white">
      <rect x="143.75" width="313.25" height="101.75" y="591" clip-path="url(#clipPath2)" stroke="none"/>
    </g>
    <g text-rendering="geometricPrecision" stroke-miterlimit="1.45" shape-rendering="geometricPrecision" transform="matrix(1,0,0,1,-128,-292)" stroke-linecap="butt">
      <rect fill="none" x="143.75" width="313.25" height="101.75" y="591" clip-path="url(#clipPath2)"/>
      <text x="269.3064" font-size="13px" y="608.0669" clip-path="url(#clipPath11)" font-family="sans-serif" stroke="none" font-weight="bold" xml:space="preserve">Revision</text>
      <line stroke-linecap="square" clip-path="url(#clipPath11)" fill="none" x1="144" x2="456" y1="616" y2="616" stroke-miterlimit="10"/>
      <text x="148.75" xml:space="preserve" y="632.2715" clip-path="url(#clipPath11)" font-family="sans-serif" stroke="none">id: String</text>
      <text x="148.75" xml:space="preserve" y="646.2402" clip-path="url(#clipPath11)" font-family="sans-serif" stroke="none">output: Path</text>
      <line stroke-linecap="square" clip-path="url(#clipPath11)" fill="none" x1="144" x2="456" y1="654" y2="654" stroke-miterlimit="10"/>
      <text x="148.75" xml:space="preserve" y="670.209" clip-path="url(#clipPath11)" font-family="sans-serif" stroke="none">getFilesBySuffix(suffix: String): List&lt;VCSFile&gt;</text>
      <text x="148.75" xml:space="preserve" y="684.1777" clip-path="url(#clipPath11)" font-family="sans-serif" stroke="none">getFilesByPrefix(prefix: String): List&lt;VCSFile&gt;</text>
    </g>
    <g fill="white" text-rendering="geometricPrecision" shape-rendering="geometricPrecision" transform="matrix(1,0,0,1,-128,-292)" stroke="white">
      <rect x="143.75" width="408.125" height="198" y="310" clip-path="url(#clipPath2)" stroke="none"/>
    </g>
    <g text-rendering="geometricPrecision" stroke-miterlimit="1.45" shape-rendering="geometricPrecision" transform="matrix(1,0,0,1,-128,-292)" stroke-linecap="butt">
      <rect fill="none" x="143.75" width="408.125" height="198" y="310" clip-path="url(#clipPath2)"/>
      <text x="293.6638" font-size="13px" y="327.0669" clip-path="url(#clipPath12)" font-family="sans-serif" stroke="none" font-weight="bold" xml:space="preserve">RevisionRange</text>
      <line stroke-linecap="square" clip-path="url(#clipPath12)" fill="none" x1="144" x2="550" y1="335" y2="335" stroke-miterlimit="10"/>
      <text x="148.75" xml:space="preserve" y="351.2715" clip-path="url(#clipPath12)" font-family="sans-serif" stroke="none">ordinal: int</text>
      <line stroke-linecap="square" clip-path="url(#clipPath12)" fill="none" x1="144" x2="550" y1="359" y2="359" stroke-miterlimit="10"/>
      <text x="148.75" xml:space="preserve" y="375.2402" clip-path="url(#clipPath12)" font-family="sans-serif" stroke="none">getLatestCommit(): Commit</text>
      <text x="148.75" xml:space="preserve" y="389.209" clip-path="url(#clipPath12)" font-family="sans-serif" stroke="none">getAddedFiles(): List&lt;FileChange&gt;</text>
      <text x="148.75" xml:space="preserve" y="403.1777" clip-path="url(#clipPath12)" font-family="sans-serif" stroke="none">getRemovedFiles(): List&lt;FileChange&gt;</text>
      <text x="148.75" xml:space="preserve" y="417.1465" clip-path="url(#clipPath12)" font-family="sans-serif" stroke="none">getModifiedFiles(): List&lt;FileChange&gt;</text>
      <text x="148.75" xml:space="preserve" y="431.1152" clip-path="url(#clipPath12)" font-family="sans-serif" stroke="none">getRelocatedFiles(): List&lt;FileChange&gt;</text>
      <text x="148.75" xml:space="preserve" y="445.084" clip-path="url(#clipPath12)" font-family="sans-serif" stroke="none">getFileChangesBySuffix(suffix: String): List&lt;FileChange&gt;</text>
      <text x="148.75" xml:space="preserve" y="459.0527" clip-path="url(#clipPath12)" font-family="sans-serif" stroke="none">getFileChangesByPrefix(prefix: String): List&lt;FileChange&gt;</text>
      <text x="148.75" xml:space="preserve" y="473.0215" clip-path="url(#clipPath12)" font-family="sans-serif" stroke="none">isFirst(): boolean</text>
      <text x="148.75" xml:space="preserve" y="486.9902" clip-path="url(#clipPath12)" font-family="sans-serif" stroke="none">ifFirst(action: Consumer&lt;RevisionRange&gt;): void</text>
      <text x="148.75" xml:space="preserve" y="500.959" clip-path="url(#clipPath12)" font-family="sans-serif" stroke="none">ifNotFirst(action: Consumer&lt;RevisionRange&gt;): void</text>
      <path fill="none" d="M879.6691 456.9656 L879.6691 394.034 L987.6475 394.034" clip-path="url(#clipPath2)"/>
      <path fill="white" d="M879.6691 463.9656 L874.6691 456.9656 L879.6691 449.9656 L884.6691 456.9656 Z" clip-path="url(#clipPath2)" stroke="none"/>
      <path fill="none" d="M879.6691 463.9656 L874.6691 456.9656 L879.6691 449.9656 L884.6691 456.9656 Z" clip-path="url(#clipPath2)"/>
      <path d="M995.6475 394.034 L983.6475 389.034 L986.6475 394.034 L983.6475 399.034 Z" clip-path="url(#clipPath2)" stroke="none"/>
      <text x="883.6691" xml:space="preserve" y="448.9958" clip-path="url(#clipPath2)" font-family="sans-serif" stroke="none">*</text>
      <text x="977.5" xml:space="preserve" y="409.1727" clip-path="url(#clipPath2)" font-family="sans-serif" stroke="none">*</text>
    </g>
    <g text-rendering="geometricPrecision" stroke-miterlimit="1.45" shape-rendering="geometricPrecision" font-family="sans-serif" transform="matrix(1,0,0,1,-128,-292) translate(892,375)" stroke-linecap="butt">
      <text x="0" xml:space="preserve" y="12" clip-path="url(#clipPath13)" stroke="none">references ▶</text>
    </g>
    <g text-rendering="geometricPrecision" stroke-miterlimit="1.45" shape-rendering="geometricPrecision" transform="matrix(1,0,0,1,-128,-292)" stroke-linecap="butt">
      <path fill="none" d="M1082.125 406.6931 L1082.125 463.9186" clip-path="url(#clipPath2)"/>
      <path d="M1082.125 399.6931 L1087.125 406.6931 L1082.125 413.6931 L1077.125 406.6931 Z" clip-path="url(#clipPath2)" stroke="none"/>
      <text x="1109.125" xml:space="preserve" y="454.1208" clip-path="url(#clipPath2)" font-family="sans-serif" stroke="none">*</text>
      <path fill="none" d="M820 599.9548 L820 655.2567" clip-path="url(#clipPath2)"/>
      <path d="M820 592.9548 L825 599.9548 L820 606.9548 L815 599.9548 Z" clip-path="url(#clipPath2)" stroke="none"/>
      <text x="847" xml:space="preserve" y="645.4199" clip-path="url(#clipPath2)" font-family="sans-serif" stroke="none">*</text>
      <path fill="none" d="M938.6552 691.8249 L1029.6189 691.499" clip-path="url(#clipPath2)"/>
    </g>
    <g stroke-linecap="butt" transform="matrix(1,0,0,1,-128,-292)" fill-opacity="0" fill="rgb(0,0,0)" text-rendering="geometricPrecision" shape-rendering="geometricPrecision" stroke="rgb(0,0,0)" stroke-opacity="0" stroke-miterlimit="1.45">
      <path d="M930.6552 691.8536 C930.6473 689.6445 932.4318 687.8472 934.6409 687.8392 C936.85 687.8314 938.6473 689.6158 938.6552 691.8249 C938.6631 694.034 936.8787 695.8313 934.6696 695.8392 C932.4604 695.8471 930.6631 694.0627 930.6552 691.8536 Z" stroke="none" clip-path="url(#clipPath2)"/>
    </g>
    <g text-rendering="geometricPrecision" stroke-miterlimit="1.45" shape-rendering="geometricPrecision" transform="matrix(1,0,0,1,-128,-292)" stroke-linecap="butt">
      <path fill="none" d="M930.6552 691.8536 C930.6473 689.6445 932.4318 687.8472 934.6409 687.8392 C936.85 687.8314 938.6473 689.6158 938.6552 691.8249 C938.6631 694.034 936.8787 695.8313 934.6696 695.8392 C932.4604 695.8471 930.6631 694.0627 930.6552 691.8536 Z" clip-path="url(#clipPath2)"/>
      <text x="941.625" xml:space="preserve" y="725.958" clip-path="url(#clipPath2)" font-family="sans-serif" stroke="none">*</text>
      <text x="1014.9902" xml:space="preserve" y="725.6923" clip-path="url(#clipPath2)" font-family="sans-serif" stroke="none">1</text>
      <path fill="none" d="M820 729.2518 L820 781.5532" clip-path="url(#clipPath2)"/>
      <path d="M820 789.5532 L825 777.5532 L820 780.5532 L815 777.5532 Z" clip-path="url(#clipPath2)" stroke="none"/>
      <text x="787" xml:space="preserve" y="779.719" clip-path="url(#clipPath2)" font-family="sans-serif" stroke="none">*</text>
    </g>
    <g text-rendering="geometricPrecision" stroke-miterlimit="1.45" shape-rendering="geometricPrecision" font-family="sans-serif" transform="matrix(1,0,0,1,-128,-292) translate(824,751)" stroke-linecap="butt">
      <text x="0" xml:space="preserve" y="12" clip-path="url(#clipPath14)" stroke="none">computes ▼</text>
    </g>
    <g text-rendering="geometricPrecision" stroke-miterlimit="1.45" shape-rendering="geometricPrecision" transform="matrix(1,0,0,1,-128,-292)" stroke-linecap="butt">
      <path fill="none" d="M938.6552 820.629 L1029.6189 820.4987" clip-path="url(#clipPath2)"/>
    </g>
    <g stroke-linecap="butt" transform="matrix(1,0,0,1,-128,-292)" fill-opacity="0" fill="rgb(0,0,0)" text-rendering="geometricPrecision" shape-rendering="geometricPrecision" stroke="rgb(0,0,0)" stroke-opacity="0" stroke-miterlimit="1.45">
      <path d="M930.6552 820.6405 C930.652 818.4314 932.4404 816.6379 934.6495 816.6348 C936.8586 816.6316 938.652 818.4199 938.6552 820.629 C938.6584 822.8381 936.8701 824.6316 934.6609 824.6348 C932.4518 824.6379 930.6584 822.8496 930.6552 820.6405 Z" stroke="none" clip-path="url(#clipPath2)"/>
    </g>
    <g text-rendering="geometricPrecision" stroke-miterlimit="1.45" shape-rendering="geometricPrecision" transform="matrix(1,0,0,1,-128,-292)" stroke-linecap="butt">
      <path fill="none" d="M930.6552 820.6405 C930.652 818.4314 932.4404 816.6379 934.6495 816.6348 C936.8586 816.6316 938.652 818.4199 938.6552 820.629 C938.6584 822.8381 936.8701 824.6316 934.6609 824.6348 C932.4518 824.6379 930.6584 822.8496 930.6552 820.6405 Z" clip-path="url(#clipPath2)"/>
      <text x="941.625" xml:space="preserve" y="854.7748" clip-path="url(#clipPath2)" font-family="sans-serif" stroke="none">*</text>
      <text x="1014.9902" xml:space="preserve" y="854.6685" clip-path="url(#clipPath2)" font-family="sans-serif" stroke="none">1</text>
      <path fill="none" d="M698.3388 719.1099 L439.3816 719.1099 L439.3816 767.7161" clip-path="url(#clipPath2)"/>
      <path d="M705.3388 719.1099 L698.3388 724.1099 L691.3388 719.1099 L698.3388 714.1099 Z" clip-path="url(#clipPath2)" stroke="none"/>
      <path d="M439.3816 775.7161 L444.3816 763.7161 L439.3816 766.7161 L434.3816 763.7161 Z" clip-path="url(#clipPath2)" stroke="none"/>
      <text x="443.3816" xml:space="preserve" y="760.7949" clip-path="url(#clipPath2)" font-family="sans-serif" stroke="none">1..2</text>
    </g>
    <g text-rendering="geometricPrecision" stroke-miterlimit="1.45" shape-rendering="geometricPrecision" font-family="sans-serif" transform="matrix(1,0,0,1,-128,-292) translate(489,700)" stroke-linecap="butt">
      <text x="0" xml:space="preserve" y="12" clip-path="url(#clipPath15)" stroke="none">◀ predecessor &amp; current</text>
    </g>
    <g text-rendering="geometricPrecision" stroke-miterlimit="1.45" shape-rendering="geometricPrecision" transform="matrix(1,0,0,1,-128,-292)" stroke-linecap="butt">
      <path fill="none" d="M820 852.0864 L820 917.7379 L464.9932 917.7379" clip-path="url(#clipPath2)"/>
      <path d="M456.9932 917.7379 L468.9932 922.7379 L465.9932 917.7379 L468.9932 912.7379 Z" clip-path="url(#clipPath2)" stroke="none"/>
      <text x="810" xml:space="preserve" y="875.3127" clip-path="url(#clipPath2)" font-family="sans-serif" stroke="none">*</text>
      <text x="469.125" xml:space="preserve" y="910.9078" clip-path="url(#clipPath2)" font-family="sans-serif" stroke="none">1</text>
      <path fill="none" d="M300.375 699.7667 L300.375 775.7616" clip-path="url(#clipPath2)"/>
      <path d="M300.375 692.7667 L305.375 699.7667 L300.375 706.7667 L295.375 699.7667 Z" clip-path="url(#clipPath2)" stroke="none"/>
      <text x="267.375" xml:space="preserve" y="765.9199" clip-path="url(#clipPath2)" font-family="sans-serif" stroke="none">*</text>
    </g>
    <g text-rendering="geometricPrecision" stroke-miterlimit="1.45" shape-rendering="geometricPrecision" font-family="sans-serif" transform="matrix(1,0,0,1,-128,-292) translate(304,719)" stroke-linecap="butt">
      <text x="0" xml:space="preserve" y="12" clip-path="url(#clipPath16)" stroke="none">does not contain</text>
      <text x="107" xml:space="preserve" y="12" clip-path="url(#clipPath16)" stroke="none"> </text>
      <text x="0" xml:space="preserve" y="27" clip-path="url(#clipPath16)" stroke="none">VCS-specific files ▼</text>
    </g>
    <g text-rendering="geometricPrecision" stroke-miterlimit="1.45" shape-rendering="geometricPrecision" transform="matrix(1,0,0,1,-128,-292)" stroke-linecap="butt">
      <path fill="none" d="M558.8633 396.534 L764.6691 396.534 L764.6691 455.9379" clip-path="url(#clipPath2)"/>
      <path d="M551.8633 396.534 L558.8633 391.534 L565.8633 396.534 L558.8633 401.534 Z" clip-path="url(#clipPath2)" stroke="none"/>
      <path d="M764.6691 463.9379 L769.6691 451.9379 L764.6691 454.9379 L759.6691 451.9379 Z" clip-path="url(#clipPath2)" stroke="none"/>
      <text x="754.6691" xml:space="preserve" y="448.9958" clip-path="url(#clipPath2)" font-family="sans-serif" stroke="none">*</text>
    </g>
    <g text-rendering="geometricPrecision" stroke-miterlimit="1.45" shape-rendering="geometricPrecision" font-family="sans-serif" transform="matrix(1,0,0,1,-128,-292) translate(632,377)" stroke-linecap="butt">
      <text x="0" xml:space="preserve" y="12" clip-path="url(#clipPath17)" stroke="none">merges ▶</text>
    </g>
    <g text-rendering="geometricPrecision" stroke-miterlimit="1.45" shape-rendering="geometricPrecision" transform="matrix(1,0,0,1,-128,-292)" stroke-linecap="butt">
      <path fill="none" d="M300.375 515.0034 L300.375 582.9868" clip-path="url(#clipPath2)"/>
      <path d="M300.375 508.0034 L305.375 515.0034 L300.375 522.0034 L295.375 515.0034 Z" clip-path="url(#clipPath2)" stroke="none"/>
      <path d="M300.375 590.9868 L305.375 578.9868 L300.375 581.9868 L295.375 578.9868 Z" clip-path="url(#clipPath2)" stroke="none"/>
      <text x="258.9258" xml:space="preserve" y="581.1699" clip-path="url(#clipPath2)" font-family="sans-serif" stroke="none">1..2</text>
    </g>
    <g text-rendering="geometricPrecision" stroke-miterlimit="1.45" shape-rendering="geometricPrecision" font-family="sans-serif" transform="matrix(1,0,0,1,-128,-292) translate(304,542)" stroke-linecap="butt">
      <text x="0" xml:space="preserve" y="12" clip-path="url(#clipPath15)" stroke="none">predecessor &amp; current ▼</text>
    </g>
    <g text-rendering="geometricPrecision" stroke-miterlimit="1.45" shape-rendering="geometricPrecision" transform="matrix(1,0,0,1,-128,-292)" stroke-linecap="butt">
      <path fill="none" d="M492.4979 514.9962 L492.4979 669.884 L697.3599 670.2354" clip-path="url(#clipPath2)"/>
      <path fill="white" d="M492.4979 507.9962 L497.4979 514.9962 L492.4979 521.9962 L487.4979 514.9962 Z" clip-path="url(#clipPath2)" stroke="none"/>
      <path fill="none" d="M492.4979 507.9962 L497.4979 514.9962 L492.4979 521.9962 L487.4979 514.9962 Z" clip-path="url(#clipPath2)"/>
      <path d="M705.3599 670.2491 L693.3685 665.2285 L696.3599 670.2336 L693.3513 675.2285 Z" clip-path="url(#clipPath2)" stroke="none"/>
      <text x="687.25" xml:space="preserve" y="663.3845" clip-path="url(#clipPath2)" font-family="sans-serif" stroke="none">*</text>
      <text x="496.4979" xml:space="preserve" y="531.2637" clip-path="url(#clipPath2)" font-family="sans-serif" stroke="none">*</text>
    </g>
    <g text-rendering="geometricPrecision" stroke-miterlimit="1.45" shape-rendering="geometricPrecision" font-family="sans-serif" transform="matrix(1,0,0,1,-128,-292) translate(512,635)" stroke-linecap="butt">
      <text x="0" xml:space="preserve" y="12" clip-path="url(#clipPath18)" stroke="none">computes changes based</text>
      <text x="163" xml:space="preserve" y="12" clip-path="url(#clipPath18)" stroke="none"> </text>
      <text x="0" xml:space="preserve" y="27" clip-path="url(#clipPath18)" stroke="none">on merged commits ▶</text>
    </g>
    <g text-rendering="geometricPrecision" stroke-miterlimit="1.45" shape-rendering="geometricPrecision" transform="matrix(1,0,0,1,-128,-292)" stroke-linecap="butt">
      <path fill="none" d="M558.8955 354.86 L987.6197 354.86" clip-path="url(#clipPath2)"/>
      <path fill="white" d="M551.8955 354.86 L558.8955 349.86 L565.8955 354.86 L558.8955 359.86 Z" clip-path="url(#clipPath2)" stroke="none"/>
      <path fill="none" d="M551.8955 354.86 L558.8955 349.86 L565.8955 354.86 L558.8955 359.86 Z" clip-path="url(#clipPath2)"/>
      <path d="M995.6197 354.86 L983.6197 349.86 L986.6197 354.86 L983.6197 359.86 Z" clip-path="url(#clipPath2)" stroke="none"/>
      <text x="982.625" xml:space="preserve" y="329.0143" clip-path="url(#clipPath2)" font-family="sans-serif" stroke="none">*</text>
      <text x="558.875" xml:space="preserve" y="329.0143" clip-path="url(#clipPath2)" font-family="sans-serif" stroke="none">*</text>
    </g>
    <g text-rendering="geometricPrecision" stroke-miterlimit="1.45" shape-rendering="geometricPrecision" font-family="sans-serif" transform="matrix(1,0,0,1,-128,-292) translate(699,309)" stroke-linecap="butt">
      <text x="0" xml:space="preserve" y="12" clip-path="url(#clipPath19)" stroke="none">computes issues based</text>
      <text x="149" xml:space="preserve" y="12" clip-path="url(#clipPath19)" stroke="none"> </text>
      <text x="0" xml:space="preserve" y="27" clip-path="url(#clipPath19)" stroke="none">on merged commits ▶</text>
    </g>
  </g>
</svg>
