<?xml version="1.0" encoding="UTF-8"?><svg xmlns="http://www.w3.org/2000/svg" xmlns:xlink="http://www.w3.org/1999/xlink" fill-opacity="1" color-rendering="auto" color-interpolation="auto" text-rendering="auto" stroke="black" stroke-linecap="square" width="1105" stroke-miterlimit="10" shape-rendering="auto" stroke-opacity="1" fill="black" stroke-dasharray="none" font-weight="normal" stroke-width="1" height="968" font-family="'Dialog'" font-style="normal" stroke-linejoin="miter" font-size="12px" stroke-dashoffset="0" image-rendering="auto">
  <!--Generated by ySVG 2.5-->
  <defs id="genericDefs"/>
  <g>
    <defs id="defs1">
      <clipPath clipPathUnits="userSpaceOnUse" id="clipPath1">
        <path d="M0 0 L1105 0 L1105 968 L0 968 L0 0 Z"/>
      </clipPath>
      <clipPath clipPathUnits="userSpaceOnUse" id="clipPath2">
        <path d="M128 295 L1233 295 L1233 1263 L128 1263 L128 295 Z"/>
      </clipPath>
      <clipPath clipPathUnits="userSpaceOnUse" id="clipPath3">
        <path d="M705 463 L705 592 L889 592 L889 463 Z"/>
      </clipPath>
      <clipPath clipPathUnits="userSpaceOnUse" id="clipPath4">
        <path d="M1044 310 L1044 399 L1217 399 L1217 310 Z"/>
      </clipPath>
      <clipPath clipPathUnits="userSpaceOnUse" id="clipPath5">
        <path d="M1044 480 L1044 554 L1217 554 L1217 480 Z"/>
      </clipPath>
      <clipPath clipPathUnits="userSpaceOnUse" id="clipPath6">
        <path d="M682 655 L682 729 L911 729 L911 655 Z"/>
      </clipPath>
      <clipPath clipPathUnits="userSpaceOnUse" id="clipPath7">
        <path d="M1078 634 L1078 747 L1217 747 L1217 634 Z"/>
      </clipPath>
      <clipPath clipPathUnits="userSpaceOnUse" id="clipPath8">
        <path d="M682 803 L682 865 L911 865 L911 803 Z"/>
      </clipPath>
      <clipPath clipPathUnits="userSpaceOnUse" id="clipPath9">
        <path d="M1078 791 L1078 876 L1217 876 L1217 791 Z"/>
      </clipPath>
      <clipPath clipPathUnits="userSpaceOnUse" id="clipPath10">
        <path d="M143 775 L143 1029 L491 1029 L491 775 Z"/>
      </clipPath>
      <clipPath clipPathUnits="userSpaceOnUse" id="clipPath11">
        <path d="M143 591 L143 692 L456 692 L456 591 Z"/>
      </clipPath>
      <clipPath clipPathUnits="userSpaceOnUse" id="clipPath12">
        <path d="M143 310 L143 508 L551 508 L551 310 Z"/>
      </clipPath>
      <clipPath clipPathUnits="userSpaceOnUse" id="clipPath13">
        <path d="M578 939 L578 1052 L912 1052 L912 939 Z"/>
      </clipPath>
      <clipPath clipPathUnits="userSpaceOnUse" id="clipPath14">
        <path d="M988 892 L988 1010 L1217 1010 L1217 892 Z"/>
      </clipPath>
      <clipPath clipPathUnits="userSpaceOnUse" id="clipPath15">
        <path d="M578 1139 L578 1246 L912 1246 L912 1139 Z"/>
      </clipPath>
      <clipPath clipPathUnits="userSpaceOnUse" id="clipPath16">
        <path d="M0 0 L0 75 L306 75 L306 0 Z"/>
      </clipPath>
      <clipPath clipPathUnits="userSpaceOnUse" id="clipPath17">
        <path d="M0 0 L0 15 L81 15 L81 0 Z"/>
      </clipPath>
      <clipPath clipPathUnits="userSpaceOnUse" id="clipPath18">
        <path d="M0 0 L0 15 L67 15 L67 0 Z"/>
      </clipPath>
      <clipPath clipPathUnits="userSpaceOnUse" id="clipPath19">
        <path d="M0 0 L0 15 L70 15 L70 0 Z"/>
      </clipPath>
      <clipPath clipPathUnits="userSpaceOnUse" id="clipPath20">
        <path d="M0 0 L0 15 L75 15 L75 0 Z"/>
      </clipPath>
      <clipPath clipPathUnits="userSpaceOnUse" id="clipPath21">
        <path d="M0 0 L0 15 L156 15 L156 0 Z"/>
      </clipPath>
      <clipPath clipPathUnits="userSpaceOnUse" id="clipPath22">
        <path d="M0 0 L0 30 L117 30 L117 0 Z"/>
      </clipPath>
      <clipPath clipPathUnits="userSpaceOnUse" id="clipPath23">
        <path d="M0 0 L0 15 L77 15 L77 0 Z"/>
      </clipPath>
      <clipPath clipPathUnits="userSpaceOnUse" id="clipPath24">
        <path d="M0 0 L0 30 L163 30 L163 0 Z"/>
      </clipPath>
      <clipPath clipPathUnits="userSpaceOnUse" id="clipPath25">
        <path d="M0 0 L0 30 L154 30 L154 0 Z"/>
      </clipPath>
      <clipPath clipPathUnits="userSpaceOnUse" id="clipPath26">
        <path d="M0 0 L0 15 L61 15 L61 0 Z"/>
      </clipPath>
      <clipPath clipPathUnits="userSpaceOnUse" id="clipPath27">
        <path d="M0 0 L0 15 L113 15 L113 0 Z"/>
      </clipPath>
      <clipPath clipPathUnits="userSpaceOnUse" id="clipPath28">
        <path d="M0 0 L0 15 L90 15 L90 0 Z"/>
      </clipPath>
    </defs>
    <g fill="white" text-rendering="geometricPrecision" shape-rendering="geometricPrecision" transform="translate(-128,-295)" stroke="white">
      <rect x="128" width="1105" height="968" y="295" clip-path="url(#clipPath2)" stroke="none"/>
    </g>
    <g fill="white" text-rendering="geometricPrecision" shape-rendering="geometricPrecision" transform="matrix(1,0,0,1,-128,-295)" stroke="white">
      <rect x="705.375" width="184.25" height="129" y="463.9509" clip-path="url(#clipPath2)" stroke="none"/>
    </g>
    <g text-rendering="geometricPrecision" stroke-miterlimit="1.45" shape-rendering="geometricPrecision" transform="matrix(1,0,0,1,-128,-295)" stroke-linecap="butt">
      <rect fill="none" x="705.375" width="184.25" height="129" y="463.9509" clip-path="url(#clipPath2)"/>
      <text x="769.3831" font-size="13px" y="481.0178" clip-path="url(#clipPath3)" font-family="sans-serif" stroke="none" font-weight="bold" xml:space="preserve">Commit</text>
      <line stroke-linecap="square" clip-path="url(#clipPath3)" fill="none" x1="706" x2="888" y1="489" y2="489" stroke-miterlimit="10"/>
      <text x="710.375" xml:space="preserve" y="505.2224" clip-path="url(#clipPath3)" font-family="sans-serif" stroke="none">id: String</text>
      <text x="710.375" xml:space="preserve" y="519.1912" clip-path="url(#clipPath3)" font-family="sans-serif" stroke="none">author: String</text>
      <text x="710.375" xml:space="preserve" y="533.1599" clip-path="url(#clipPath3)" font-family="sans-serif" stroke="none">message: String</text>
      <text x="710.375" xml:space="preserve" y="547.1287" clip-path="url(#clipPath3)" font-family="sans-serif" stroke="none">dateTime: LocalDateTime</text>
      <text x="710.375" xml:space="preserve" y="561.0974" clip-path="url(#clipPath3)" font-family="sans-serif" stroke="none">parentIds: List&lt;String&gt;</text>
      <line stroke-linecap="square" clip-path="url(#clipPath3)" fill="none" x1="706" x2="888" y1="568" y2="568" stroke-miterlimit="10"/>
      <text x="710.375" xml:space="preserve" y="585.0662" clip-path="url(#clipPath3)" font-family="sans-serif" stroke="none">isMerge(): boolean</text>
    </g>
    <g fill="white" text-rendering="geometricPrecision" shape-rendering="geometricPrecision" transform="matrix(1,0,0,1,-128,-295)" stroke="white">
      <rect x="1044.375" width="173" height="89.72" y="310" clip-path="url(#clipPath2)" stroke="none"/>
    </g>
    <g text-rendering="geometricPrecision" stroke-miterlimit="1.45" shape-rendering="geometricPrecision" transform="matrix(1,0,0,1,-128,-295)" stroke-linecap="butt">
      <rect fill="none" x="1044.375" width="173" height="89.72" y="310" clip-path="url(#clipPath2)"/>
      <text x="1111.6829" font-size="13px" y="327.0669" clip-path="url(#clipPath4)" font-family="sans-serif" stroke="none" font-weight="bold" xml:space="preserve">Issue</text>
      <line stroke-linecap="square" clip-path="url(#clipPath4)" fill="none" x1="1045" x2="1216" y1="335" y2="335" stroke-miterlimit="10"/>
      <text x="1049.375" xml:space="preserve" y="351.2715" clip-path="url(#clipPath4)" font-family="sans-serif" stroke="none">id: String</text>
      <text x="1049.375" xml:space="preserve" y="365.2402" clip-path="url(#clipPath4)" font-family="sans-serif" stroke="none">author: String</text>
      <text x="1049.375" xml:space="preserve" y="379.209" clip-path="url(#clipPath4)" font-family="sans-serif" stroke="none">title: String</text>
      <text x="1049.375" xml:space="preserve" y="393.1777" clip-path="url(#clipPath4)" font-family="sans-serif" stroke="none">dateTime: LocalDateTime</text>
      <line stroke-linecap="square" clip-path="url(#clipPath4)" fill="none" x1="1045" x2="1216" y1="401" y2="401" stroke-miterlimit="10"/>
    </g>
    <g fill="white" text-rendering="geometricPrecision" shape-rendering="geometricPrecision" transform="matrix(1,0,0,1,-128,-295)" stroke="white">
      <rect x="1044.375" width="173" height="74" y="480.235" clip-path="url(#clipPath2)" stroke="none"/>
    </g>
    <g text-rendering="geometricPrecision" stroke-miterlimit="1.45" shape-rendering="geometricPrecision" transform="matrix(1,0,0,1,-128,-295)" stroke-linecap="butt">
      <rect fill="none" x="1044.375" width="173" height="74" y="480.235" clip-path="url(#clipPath2)"/>
      <text x="1095.9502" font-size="13px" y="497.3019" clip-path="url(#clipPath5)" font-family="sans-serif" stroke="none" font-weight="bold" xml:space="preserve">Comment</text>
      <line stroke-linecap="square" clip-path="url(#clipPath5)" fill="none" x1="1045" x2="1216" y1="505" y2="505" stroke-miterlimit="10"/>
      <text x="1049.375" xml:space="preserve" y="521.5065" clip-path="url(#clipPath5)" font-family="sans-serif" stroke="none">author: String</text>
      <text x="1049.375" xml:space="preserve" y="535.4752" clip-path="url(#clipPath5)" font-family="sans-serif" stroke="none">message: String</text>
      <text x="1049.375" xml:space="preserve" y="549.444" clip-path="url(#clipPath5)" font-family="sans-serif" stroke="none">dateTime: LocalDateTime</text>
      <line stroke-linecap="square" clip-path="url(#clipPath5)" fill="none" x1="1045" x2="1216" y1="557" y2="557" stroke-miterlimit="10"/>
    </g>
    <g fill="white" text-rendering="geometricPrecision" shape-rendering="geometricPrecision" transform="matrix(1,0,0,1,-128,-295)" stroke="white">
      <rect x="682.875" width="229.25" height="74" y="655.25" clip-path="url(#clipPath2)" stroke="none"/>
    </g>
    <g text-rendering="geometricPrecision" stroke-miterlimit="1.45" shape-rendering="geometricPrecision" transform="matrix(1,0,0,1,-128,-295)" stroke-linecap="butt">
      <rect fill="none" x="682.875" width="229.25" height="74" y="655.25" clip-path="url(#clipPath2)"/>
      <text x="756.7227" font-size="13px" y="672.3169" clip-path="url(#clipPath6)" font-family="sans-serif" stroke="none" font-weight="bold" xml:space="preserve">FileChange</text>
      <line stroke-linecap="square" clip-path="url(#clipPath6)" fill="none" x1="683" x2="911" y1="680" y2="680" stroke-miterlimit="10"/>
      <line stroke-linecap="square" clip-path="url(#clipPath6)" fill="none" x1="683" x2="911" y1="690" y2="690" stroke-miterlimit="10"/>
      <text x="687.875" xml:space="preserve" y="706.5215" clip-path="url(#clipPath6)" font-family="sans-serif" stroke="none">computeDiff(): List&lt;LineChange&gt;</text>
      <text x="687.875" xml:space="preserve" y="720.4902" clip-path="url(#clipPath6)" font-family="sans-serif" stroke="none">computeLineDelta(): int</text>
    </g>
    <g fill="white" text-rendering="geometricPrecision" shape-rendering="geometricPrecision" transform="matrix(1,0,0,1,-128,-295)" stroke="white">
      <rect x="1078.375" width="139" height="113" y="634.75" clip-path="url(#clipPath2)" stroke="none"/>
    </g>
    <g text-rendering="geometricPrecision" stroke-miterlimit="1.45" shape-rendering="geometricPrecision" transform="matrix(1,0,0,1,-128,-295)" stroke-linecap="butt">
      <rect fill="none" x="1078.375" width="139" height="113" y="634.75" clip-path="url(#clipPath2)"/>
      <text x="1089.2959" xml:space="preserve" y="650.8887" clip-path="url(#clipPath7)" font-family="sans-serif" stroke="none">&lt;&lt;enumeration&gt;&gt;</text>
      <text x="1130.1428" font-size="13px" y="674.7856" clip-path="url(#clipPath7)" font-family="sans-serif" stroke="none" font-weight="bold" xml:space="preserve">Type</text>
      <line stroke-linecap="square" clip-path="url(#clipPath7)" fill="none" x1="1079" x2="1216" y1="682" y2="682" stroke-miterlimit="10"/>
      <text x="1083.375" xml:space="preserve" y="698.9902" clip-path="url(#clipPath7)" font-family="sans-serif" stroke="none">ADD</text>
      <text x="1083.375" xml:space="preserve" y="712.959" clip-path="url(#clipPath7)" font-family="sans-serif" stroke="none">REMOVE</text>
      <text x="1083.375" xml:space="preserve" y="726.9277" clip-path="url(#clipPath7)" font-family="sans-serif" stroke="none">MODIFY</text>
      <text x="1083.375" xml:space="preserve" y="740.8965" clip-path="url(#clipPath7)" font-family="sans-serif" stroke="none">RELOCATE</text>
      <line stroke-linecap="square" clip-path="url(#clipPath7)" fill="none" x1="1079" x2="1216" y1="748" y2="748" stroke-miterlimit="10"/>
    </g>
    <g fill="white" text-rendering="geometricPrecision" shape-rendering="geometricPrecision" transform="matrix(1,0,0,1,-128,-295)" stroke="white">
      <rect x="682.875" width="229.25" height="62.5" y="803" clip-path="url(#clipPath2)" stroke="none"/>
    </g>
    <g text-rendering="geometricPrecision" stroke-miterlimit="1.45" shape-rendering="geometricPrecision" transform="matrix(1,0,0,1,-128,-295)" stroke-linecap="butt">
      <rect fill="none" x="682.875" width="229.25" height="62.5" y="803" clip-path="url(#clipPath2)"/>
      <text x="754.6216" font-size="13px" y="820.0669" clip-path="url(#clipPath8)" font-family="sans-serif" stroke="none" font-weight="bold" xml:space="preserve">LineChange</text>
      <line stroke-linecap="square" clip-path="url(#clipPath8)" fill="none" x1="683" x2="911" y1="828" y2="828" stroke-miterlimit="10"/>
      <text x="687.875" xml:space="preserve" y="844.2715" clip-path="url(#clipPath8)" font-family="sans-serif" stroke="none">line: int</text>
      <text x="687.875" xml:space="preserve" y="858.2402" clip-path="url(#clipPath8)" font-family="sans-serif" stroke="none">content: String</text>
      <line stroke-linecap="square" clip-path="url(#clipPath8)" fill="none" x1="683" x2="911" y1="866" y2="866" stroke-miterlimit="10"/>
    </g>
    <g fill="white" text-rendering="geometricPrecision" shape-rendering="geometricPrecision" transform="matrix(1,0,0,1,-128,-295)" stroke="white">
      <rect x="1078.375" width="139" height="85.2" y="791.65" clip-path="url(#clipPath2)" stroke="none"/>
    </g>
    <g text-rendering="geometricPrecision" stroke-miterlimit="1.45" shape-rendering="geometricPrecision" transform="matrix(1,0,0,1,-128,-295)" stroke-linecap="butt">
      <rect fill="none" x="1078.375" width="139" height="85.2" y="791.65" clip-path="url(#clipPath2)"/>
      <text x="1089.2959" xml:space="preserve" y="807.7887" clip-path="url(#clipPath9)" font-family="sans-serif" stroke="none">&lt;&lt;enumeration&gt;&gt;</text>
      <text x="1130.1428" font-size="13px" y="831.6857" clip-path="url(#clipPath9)" font-family="sans-serif" stroke="none" font-weight="bold" xml:space="preserve">Type</text>
      <line stroke-linecap="square" clip-path="url(#clipPath9)" fill="none" x1="1079" x2="1216" y1="839" y2="839" stroke-miterlimit="10"/>
      <text x="1083.375" xml:space="preserve" y="855.8903" clip-path="url(#clipPath9)" font-family="sans-serif" stroke="none">INSERT</text>
      <text x="1083.375" xml:space="preserve" y="869.859" clip-path="url(#clipPath9)" font-family="sans-serif" stroke="none">DELETE</text>
      <line stroke-linecap="square" clip-path="url(#clipPath9)" fill="none" x1="1079" x2="1216" y1="877" y2="877" stroke-miterlimit="10"/>
    </g>
    <g fill="white" text-rendering="geometricPrecision" shape-rendering="geometricPrecision" transform="matrix(1,0,0,1,-128,-295)" stroke="white">
      <rect x="143.75" width="348.25" height="254.5" y="775.75" clip-path="url(#clipPath2)" stroke="none"/>
    </g>
    <g text-rendering="geometricPrecision" stroke-miterlimit="1.45" shape-rendering="geometricPrecision" transform="matrix(1,0,0,1,-128,-295)" stroke-linecap="butt">
      <rect fill="none" x="143.75" width="348.25" height="254.5" y="775.75" clip-path="url(#clipPath2)"/>
      <text x="290.0881" font-size="13px" y="792.8169" clip-path="url(#clipPath10)" font-family="sans-serif" stroke="none" font-weight="bold" xml:space="preserve">VCSFile</text>
      <line stroke-linecap="square" clip-path="url(#clipPath10)" fill="none" x1="144" x2="491" y1="800" y2="800" stroke-miterlimit="10"/>
      <text x="148.75" xml:space="preserve" y="817.0215" clip-path="url(#clipPath10)" font-family="sans-serif" stroke="none">path: String</text>
      <text x="148.75" xml:space="preserve" y="830.9902" clip-path="url(#clipPath10)" font-family="sans-serif" stroke="none">relativePath: String</text>
      <text x="148.75" xml:space="preserve" y="844.959" clip-path="url(#clipPath10)" font-family="sans-serif" stroke="none">charset: Charset [0..1]</text>
      <line stroke-linecap="square" clip-path="url(#clipPath10)" fill="none" x1="144" x2="491" y1="852" y2="852" stroke-miterlimit="10"/>
      <text x="148.75" xml:space="preserve" y="868.9277" clip-path="url(#clipPath10)" font-family="sans-serif" stroke="none">readAllBytes(): byte[]</text>
      <text x="148.75" xml:space="preserve" y="882.8965" clip-path="url(#clipPath10)" font-family="sans-serif" stroke="none">readContent(): String</text>
      <text x="148.75" xml:space="preserve" y="896.8652" clip-path="url(#clipPath10)" font-family="sans-serif" stroke="none">readLines(): List&lt;String&gt;</text>
      <text x="148.75" xml:space="preserve" y="910.834" clip-path="url(#clipPath10)" font-family="sans-serif" stroke="none">readLinesWithEOL(): List&lt;String&gt;</text>
      <text x="148.75" xml:space="preserve" y="924.8027" clip-path="url(#clipPath10)" font-family="sans-serif" stroke="none">readLineInfo(): List&lt;LineInfo&gt;</text>
      <text x="148.75" xml:space="preserve" y="938.7715" clip-path="url(#clipPath10)" font-family="sans-serif" stroke="none">isBinary(): boolean</text>
      <text x="148.75" xml:space="preserve" y="952.7402" clip-path="url(#clipPath10)" font-family="sans-serif" stroke="none">toFile(): File</text>
      <text x="148.75" xml:space="preserve" y="966.709" clip-path="url(#clipPath10)" font-family="sans-serif" stroke="none">toRelativeFile(): File</text>
      <text x="148.75" xml:space="preserve" y="980.6777" clip-path="url(#clipPath10)" font-family="sans-serif" stroke="none">toPath(): Path</text>
      <text x="148.75" xml:space="preserve" y="994.6465" clip-path="url(#clipPath10)" font-family="sans-serif" stroke="none">toRelativePath(): Path</text>
      <text x="148.75" xml:space="preserve" y="1008.6152" clip-path="url(#clipPath10)" font-family="sans-serif" stroke="none">positionOf(offset: int, tabSize: int): Position</text>
      <text x="148.75" xml:space="preserve" y="1022.584" clip-path="url(#clipPath10)" font-family="sans-serif" stroke="none">positionOf(line: int, column: int, tabSize: int): Position</text>
    </g>
    <g fill="white" text-rendering="geometricPrecision" shape-rendering="geometricPrecision" transform="matrix(1,0,0,1,-128,-295)" stroke="white">
      <rect x="143.75" width="313.25" height="101.75" y="591" clip-path="url(#clipPath2)" stroke="none"/>
    </g>
    <g text-rendering="geometricPrecision" stroke-miterlimit="1.45" shape-rendering="geometricPrecision" transform="matrix(1,0,0,1,-128,-295)" stroke-linecap="butt">
      <rect fill="none" x="143.75" width="313.25" height="101.75" y="591" clip-path="url(#clipPath2)"/>
      <text x="269.3064" font-size="13px" y="608.0669" clip-path="url(#clipPath11)" font-family="sans-serif" stroke="none" font-weight="bold" xml:space="preserve">Revision</text>
      <line stroke-linecap="square" clip-path="url(#clipPath11)" fill="none" x1="144" x2="456" y1="616" y2="616" stroke-miterlimit="10"/>
      <text x="148.75" xml:space="preserve" y="632.2715" clip-path="url(#clipPath11)" font-family="sans-serif" stroke="none">id: String</text>
      <text x="148.75" xml:space="preserve" y="646.2402" clip-path="url(#clipPath11)" font-family="sans-serif" stroke="none">output: Path</text>
      <line stroke-linecap="square" clip-path="url(#clipPath11)" fill="none" x1="144" x2="456" y1="654" y2="654" stroke-miterlimit="10"/>
      <text x="148.75" xml:space="preserve" y="670.209" clip-path="url(#clipPath11)" font-family="sans-serif" stroke="none">getFilesBySuffix(suffix: String): List&lt;VCSFile&gt;</text>
      <text x="148.75" xml:space="preserve" y="684.1777" clip-path="url(#clipPath11)" font-family="sans-serif" stroke="none">getFilesByPrefix(prefix: String): List&lt;VCSFile&gt;</text>
    </g>
    <g fill="white" text-rendering="geometricPrecision" shape-rendering="geometricPrecision" transform="matrix(1,0,0,1,-128,-295)" stroke="white">
      <rect x="143.75" width="408.125" height="198" y="310" clip-path="url(#clipPath2)" stroke="none"/>
    </g>
    <g text-rendering="geometricPrecision" stroke-miterlimit="1.45" shape-rendering="geometricPrecision" transform="matrix(1,0,0,1,-128,-295)" stroke-linecap="butt">
      <rect fill="none" x="143.75" width="408.125" height="198" y="310" clip-path="url(#clipPath2)"/>
      <text x="293.6638" font-size="13px" y="327.0669" clip-path="url(#clipPath12)" font-family="sans-serif" stroke="none" font-weight="bold" xml:space="preserve">RevisionRange</text>
      <line stroke-linecap="square" clip-path="url(#clipPath12)" fill="none" x1="144" x2="550" y1="335" y2="335" stroke-miterlimit="10"/>
      <text x="148.75" xml:space="preserve" y="351.2715" clip-path="url(#clipPath12)" font-family="sans-serif" stroke="none">ordinal: int</text>
      <line stroke-linecap="square" clip-path="url(#clipPath12)" fill="none" x1="144" x2="550" y1="359" y2="359" stroke-miterlimit="10"/>
      <text x="148.75" xml:space="preserve" y="375.2402" clip-path="url(#clipPath12)" font-family="sans-serif" stroke="none">getLatestCommit(): Commit</text>
      <text x="148.75" xml:space="preserve" y="389.209" clip-path="url(#clipPath12)" font-family="sans-serif" stroke="none">getAddedFiles(): List&lt;FileChange&gt;</text>
      <text x="148.75" xml:space="preserve" y="403.1777" clip-path="url(#clipPath12)" font-family="sans-serif" stroke="none">getRemovedFiles(): List&lt;FileChange&gt;</text>
      <text x="148.75" xml:space="preserve" y="417.1465" clip-path="url(#clipPath12)" font-family="sans-serif" stroke="none">getModifiedFiles(): List&lt;FileChange&gt;</text>
      <text x="148.75" xml:space="preserve" y="431.1152" clip-path="url(#clipPath12)" font-family="sans-serif" stroke="none">getRelocatedFiles(): List&lt;FileChange&gt;</text>
      <text x="148.75" xml:space="preserve" y="445.084" clip-path="url(#clipPath12)" font-family="sans-serif" stroke="none">getFileChangesBySuffix(suffix: String): List&lt;FileChange&gt;</text>
      <text x="148.75" xml:space="preserve" y="459.0527" clip-path="url(#clipPath12)" font-family="sans-serif" stroke="none">getFileChangesByPrefix(prefix: String): List&lt;FileChange&gt;</text>
      <text x="148.75" xml:space="preserve" y="473.0215" clip-path="url(#clipPath12)" font-family="sans-serif" stroke="none">isFirst(): boolean</text>
      <text x="148.75" xml:space="preserve" y="486.9902" clip-path="url(#clipPath12)" font-family="sans-serif" stroke="none">ifFirst(action: Consumer&lt;RevisionRange&gt;): void</text>
      <text x="148.75" xml:space="preserve" y="500.959" clip-path="url(#clipPath12)" font-family="sans-serif" stroke="none">ifNotFirst(action: Consumer&lt;RevisionRange&gt;): void</text>
    </g>
    <g fill="white" text-rendering="geometricPrecision" shape-rendering="geometricPrecision" transform="matrix(1,0,0,1,-128,-295)" stroke="white">
      <rect x="578.0625" width="334.0625" height="113" y="939.25" clip-path="url(#clipPath2)" stroke="none"/>
    </g>
    <g text-rendering="geometricPrecision" stroke-miterlimit="1.45" shape-rendering="geometricPrecision" transform="matrix(1,0,0,1,-128,-295)" stroke-linecap="butt">
      <rect fill="none" x="578.0625" width="334.0625" height="113" y="939.25" clip-path="url(#clipPath2)"/>
      <text x="715.3391" font-size="13px" y="956.3169" clip-path="url(#clipPath13)" font-family="sans-serif" stroke="none" font-weight="bold" xml:space="preserve">Position</text>
      <line stroke-linecap="square" clip-path="url(#clipPath13)" fill="none" x1="579" x2="911" y1="964" y2="964" stroke-miterlimit="10"/>
      <text x="583.0625" xml:space="preserve" y="980.5215" clip-path="url(#clipPath13)" font-family="sans-serif" stroke="none">line: int</text>
      <text x="583.0625" xml:space="preserve" y="994.4902" clip-path="url(#clipPath13)" font-family="sans-serif" stroke="none">column: int</text>
      <text x="583.0625" xml:space="preserve" y="1008.459" clip-path="url(#clipPath13)" font-family="sans-serif" stroke="none">offset: int</text>
      <text x="583.0625" xml:space="preserve" y="1022.4277" clip-path="url(#clipPath13)" font-family="sans-serif" stroke="none">tabSize: int</text>
      <line stroke-linecap="square" clip-path="url(#clipPath13)" fill="none" x1="579" x2="911" y1="1030" y2="1030" stroke-miterlimit="10"/>
      <text x="583.0625" xml:space="preserve" y="1046.3965" clip-path="url(#clipPath13)" font-family="sans-serif" stroke="none">apply(fileChange: FileChange): Optional&lt;Position&gt;</text>
    </g>
    <g fill="white" text-rendering="geometricPrecision" shape-rendering="geometricPrecision" transform="matrix(1,0,0,1,-128,-295)" stroke="white">
      <rect x="988.125" width="229.25" height="118.75" y="892.9991" clip-path="url(#clipPath2)" stroke="none"/>
    </g>
    <g text-rendering="geometricPrecision" stroke-miterlimit="1.45" shape-rendering="geometricPrecision" transform="matrix(1,0,0,1,-128,-295)" stroke-linecap="butt">
      <rect fill="none" x="988.125" width="229.25" height="118.75" y="892.9991" clip-path="url(#clipPath2)"/>
      <text x="1073.0049" font-size="13px" y="910.066" clip-path="url(#clipPath14)" font-family="sans-serif" stroke="none" font-weight="bold" xml:space="preserve">LineInfo</text>
      <line stroke-linecap="square" clip-path="url(#clipPath14)" fill="none" x1="989" x2="1216" y1="918" y2="918" stroke-miterlimit="10"/>
      <text x="993.125" xml:space="preserve" y="934.2706" clip-path="url(#clipPath14)" font-family="sans-serif" stroke="none">id: String</text>
      <text x="993.125" xml:space="preserve" y="948.2393" clip-path="url(#clipPath14)" font-family="sans-serif" stroke="none">author: String</text>
      <text x="993.125" xml:space="preserve" y="962.2081" clip-path="url(#clipPath14)" font-family="sans-serif" stroke="none">message: String</text>
      <text x="993.125" xml:space="preserve" y="976.1768" clip-path="url(#clipPath14)" font-family="sans-serif" stroke="none">dateTime: LocalDateTime</text>
      <text x="993.125" xml:space="preserve" y="990.1456" clip-path="url(#clipPath14)" font-family="sans-serif" stroke="none">line: int</text>
      <text x="993.125" xml:space="preserve" y="1004.1143" clip-path="url(#clipPath14)" font-family="sans-serif" stroke="none">content: String</text>
      <line stroke-linecap="square" clip-path="url(#clipPath14)" fill="none" x1="989" x2="1216" y1="1011" y2="1011" stroke-miterlimit="10"/>
    </g>
    <g fill="white" text-rendering="geometricPrecision" shape-rendering="geometricPrecision" transform="matrix(1,0,0,1,-128,-295)" stroke="white">
      <rect x="578.0625" width="334.0625" height="107.72" y="1139.4509" clip-path="url(#clipPath2)" stroke="none"/>
    </g>
    <g text-rendering="geometricPrecision" stroke-miterlimit="1.45" shape-rendering="geometricPrecision" transform="matrix(1,0,0,1,-128,-295)" stroke-linecap="butt">
      <rect fill="none" x="578.0625" width="334.0625" height="107.72" y="1139.4509" clip-path="url(#clipPath2)"/>
      <text x="722.0137" font-size="13px" y="1156.5178" clip-path="url(#clipPath15)" font-family="sans-serif" stroke="none" font-weight="bold" xml:space="preserve">Range</text>
      <line stroke-linecap="square" clip-path="url(#clipPath15)" fill="none" x1="579" x2="911" y1="1164" y2="1164" stroke-miterlimit="10"/>
    </g>
    <g text-rendering="geometricPrecision" stroke-miterlimit="1.45" shape-rendering="geometricPrecision" font-family="sans-serif" transform="matrix(1,0,0,1,-128,-295) translate(583,1169)" stroke-linecap="butt">
      <text x="0" xml:space="preserve" y="12" clip-path="url(#clipPath16)" stroke="none">lengthOf(ranges: Collection&lt;Range&gt;): int</text>
      <line y2="13" fill="none" x1="0" clip-path="url(#clipPath16)" x2="260" y1="13"/>
      <text x="260" xml:space="preserve" y="12" clip-path="url(#clipPath16)" stroke="none"> </text>
      <text x="0" xml:space="preserve" y="27" clip-path="url(#clipPath16)" stroke="none">length(): int</text>
      <text x="74" xml:space="preserve" y="27" clip-path="url(#clipPath16)" stroke="none"> </text>
      <text x="0" xml:space="preserve" y="42" clip-path="url(#clipPath16)" stroke="none">readContent(): String</text>
      <text x="134" xml:space="preserve" y="42" clip-path="url(#clipPath16)" stroke="none"> </text>
      <text x="0" xml:space="preserve" y="57" clip-path="url(#clipPath16)" stroke="none">merge(range: Range): Optional&lt;Range&gt;</text>
      <text x="255" xml:space="preserve" y="57" clip-path="url(#clipPath16)" stroke="none"> </text>
      <text x="0" xml:space="preserve" y="72" clip-path="url(#clipPath16)" stroke="none">apply(fileChange: FileChange): Optional&lt;Range&gt;</text>
      <text x="306" xml:space="preserve" y="72" clip-path="url(#clipPath16)" stroke="none"> </text>
    </g>
    <g text-rendering="geometricPrecision" shape-rendering="geometricPrecision" transform="matrix(1,0,0,1,-128,-295)">
      <line y2="1249" fill="none" x1="579" clip-path="url(#clipPath15)" x2="911" y1="1249"/>
      <path fill="none" stroke-miterlimit="1.45" d="M845.4565 456.9656 L845.4565 394.034 L1036.3915 394.034" clip-path="url(#clipPath2)" stroke-linecap="butt"/>
    </g>
    <g stroke-linecap="butt" transform="matrix(1,0,0,1,-128,-295)" fill="white" text-rendering="geometricPrecision" shape-rendering="geometricPrecision" stroke="white" stroke-miterlimit="1.45">
      <path d="M845.4565 463.9656 L840.4565 456.9656 L845.4565 449.9656 L850.4565 456.9656 Z" stroke="none" clip-path="url(#clipPath2)"/>
      <path fill="none" d="M845.4565 463.9656 L840.4565 456.9656 L845.4565 449.9656 L850.4565 456.9656 Z" clip-path="url(#clipPath2)" stroke="black"/>
      <path fill="black" d="M1044.3915 394.034 L1032.3915 389.034 L1035.3915 394.034 L1032.3915 399.034 Z" clip-path="url(#clipPath2)" stroke="none"/>
      <text x="849.4565" y="448.9958" clip-path="url(#clipPath2)" fill="black" font-family="sans-serif" stroke="none" xml:space="preserve">*</text>
      <text x="1026.25" y="409.1727" clip-path="url(#clipPath2)" fill="black" font-family="sans-serif" stroke="none" xml:space="preserve">*</text>
    </g>
    <g text-rendering="geometricPrecision" stroke-miterlimit="1.45" shape-rendering="geometricPrecision" font-family="sans-serif" transform="matrix(1,0,0,1,-128,-295) translate(899,375)" stroke-linecap="butt">
      <text x="0" xml:space="preserve" y="12" clip-path="url(#clipPath17)" stroke="none">references ▶</text>
    </g>
    <g text-rendering="geometricPrecision" stroke-miterlimit="1.45" shape-rendering="geometricPrecision" transform="matrix(1,0,0,1,-128,-295)" stroke-linecap="butt">
      <path fill="none" d="M1130.875 406.6955 L1130.875 480.2456" clip-path="url(#clipPath2)"/>
      <path d="M1130.875 399.6955 L1135.875 406.6955 L1130.875 413.6955 L1125.875 406.6955 Z" clip-path="url(#clipPath2)" stroke="none"/>
      <text x="1157.875" xml:space="preserve" y="470.4049" clip-path="url(#clipPath2)" font-family="sans-serif" stroke="none">*</text>
    </g>
    <g text-rendering="geometricPrecision" stroke-miterlimit="1.45" shape-rendering="geometricPrecision" font-family="sans-serif" transform="matrix(1,0,0,1,-128,-295) translate(1134,432)" stroke-linecap="butt">
      <text x="0" xml:space="preserve" y="12" clip-path="url(#clipPath18)" stroke="none">contains ▼</text>
    </g>
    <g text-rendering="geometricPrecision" stroke-miterlimit="1.45" shape-rendering="geometricPrecision" transform="matrix(1,0,0,1,-128,-295)" stroke-linecap="butt">
      <path fill="none" d="M797.5 599.9548 L797.5 647.2567" clip-path="url(#clipPath2)"/>
      <path d="M797.5 592.9548 L802.5 599.9548 L797.5 606.9548 L792.5 599.9548 Z" clip-path="url(#clipPath2)" stroke="none"/>
      <path d="M797.5 655.2567 L802.5 643.2567 L797.5 646.2567 L792.5 643.2567 Z" clip-path="url(#clipPath2)" stroke="none"/>
      <text x="824.5" xml:space="preserve" y="645.4199" clip-path="url(#clipPath2)" font-family="sans-serif" stroke="none">*</text>
    </g>
    <g text-rendering="geometricPrecision" stroke-miterlimit="1.45" shape-rendering="geometricPrecision" font-family="sans-serif" transform="matrix(1,0,0,1,-128,-295) translate(801,616)" stroke-linecap="butt">
      <text x="0" xml:space="preserve" y="12" clip-path="url(#clipPath18)" stroke="none">contains ▼</text>
    </g>
    <g text-rendering="geometricPrecision" stroke-miterlimit="1.45" shape-rendering="geometricPrecision" transform="matrix(1,0,0,1,-128,-295)" stroke-linecap="butt">
      <path fill="none" d="M916.1417 692.25 L1078.3802 692.25" clip-path="url(#clipPath2)"/>
    </g>
    <g stroke-linecap="butt" transform="matrix(1,0,0,1,-128,-295)" fill-opacity="0" fill="rgb(0,0,0)" text-rendering="geometricPrecision" shape-rendering="geometricPrecision" stroke="rgb(0,0,0)" stroke-opacity="0" stroke-miterlimit="1.45">
      <path d="M908.1417 692.25 C908.1417 690.0408 909.9326 688.25 912.1417 688.25 C914.3509 688.25 916.1417 690.0408 916.1417 692.25 C916.1417 694.4592 914.3509 696.25 912.1417 696.25 C909.9326 696.25 908.1417 694.4592 908.1417 692.25 Z" stroke="none" clip-path="url(#clipPath2)"/>
    </g>
    <g text-rendering="geometricPrecision" stroke-miterlimit="1.45" shape-rendering="geometricPrecision" transform="matrix(1,0,0,1,-128,-295)" stroke-linecap="butt">
      <path fill="none" d="M908.1417 692.25 C908.1417 690.0408 909.9326 688.25 912.1417 688.25 C914.3509 688.25 916.1417 690.0408 916.1417 692.25 C916.1417 694.4592 914.3509 696.25 912.1417 696.25 C909.9326 696.25 908.1417 694.4592 908.1417 692.25 Z" clip-path="url(#clipPath2)"/>
    </g>
    <g text-rendering="geometricPrecision" stroke-miterlimit="1.45" shape-rendering="geometricPrecision" font-family="sans-serif" transform="matrix(1,0,0,1,-128,-295) translate(960,673)" stroke-linecap="butt">
      <text x="0" xml:space="preserve" y="12" clip-path="url(#clipPath19)" stroke="none">is of type ▶</text>
    </g>
    <g text-rendering="geometricPrecision" stroke-miterlimit="1.45" shape-rendering="geometricPrecision" font-family="sans-serif" transform="matrix(1,0,0,1,-128,-295)" stroke-linecap="butt">
      <text x="1063.7402" xml:space="preserve" y="726.4043" clip-path="url(#clipPath2)" stroke="none">1</text>
      <text x="919.125" xml:space="preserve" y="726.4043" clip-path="url(#clipPath2)" stroke="none">*</text>
      <path fill="none" d="M797.5 729.2407 L797.5 794.9985" clip-path="url(#clipPath2)"/>
      <path d="M797.5 802.9985 L802.5 790.9985 L797.5 793.9985 L792.5 790.9985 Z" clip-path="url(#clipPath2)" stroke="none"/>
      <text x="721.207" xml:space="preserve" y="788.0449" clip-path="url(#clipPath2)" stroke="none">* {ordered}</text>
    </g>
    <g text-rendering="geometricPrecision" stroke-miterlimit="1.45" shape-rendering="geometricPrecision" font-family="sans-serif" transform="matrix(1,0,0,1,-128,-295) translate(801,758)" stroke-linecap="butt">
      <text x="0" xml:space="preserve" y="12" clip-path="url(#clipPath20)" stroke="none">computes ▼</text>
    </g>
    <g text-rendering="geometricPrecision" stroke-miterlimit="1.45" shape-rendering="geometricPrecision" font-family="sans-serif" transform="matrix(1,0,0,1,-128,-295)" stroke-linecap="butt">
      <text x="823.6826" xml:space="preserve" y="747.3887" clip-path="url(#clipPath2)" stroke="none">1</text>
      <path fill="none" d="M916.1667 834.3818 L1078.3763 834.5621" clip-path="url(#clipPath2)"/>
    </g>
    <g stroke-linecap="butt" transform="matrix(1,0,0,1,-128,-295)" fill-opacity="0" fill="rgb(0,0,0)" text-rendering="geometricPrecision" shape-rendering="geometricPrecision" stroke="rgb(0,0,0)" stroke-opacity="0" stroke-miterlimit="1.45">
      <path d="M908.1667 834.3729 C908.1692 832.1638 909.962 830.3749 912.1712 830.3774 C914.3804 830.3798 916.1692 832.1727 916.1667 834.3818 C916.1643 836.591 914.3715 838.3798 912.1623 838.3774 C909.9531 838.3749 908.1643 836.5821 908.1667 834.3729 Z" stroke="none" clip-path="url(#clipPath2)"/>
    </g>
    <g text-rendering="geometricPrecision" stroke-miterlimit="1.45" shape-rendering="geometricPrecision" transform="matrix(1,0,0,1,-128,-295)" stroke-linecap="butt">
      <path fill="none" d="M908.1667 834.3729 C908.1692 832.1638 909.962 830.3749 912.1712 830.3774 C914.3804 830.3798 916.1692 832.1727 916.1667 834.3818 C916.1643 836.591 914.3715 838.3798 912.1623 838.3774 C909.9531 838.3749 908.1643 836.5821 908.1667 834.3729 Z" clip-path="url(#clipPath2)"/>
    </g>
    <g text-rendering="geometricPrecision" stroke-miterlimit="1.45" shape-rendering="geometricPrecision" font-family="sans-serif" transform="matrix(1,0,0,1,-128,-295) translate(960,815)" stroke-linecap="butt">
      <text x="0" xml:space="preserve" y="12" clip-path="url(#clipPath19)" stroke="none">is of type ▶</text>
    </g>
    <g text-rendering="geometricPrecision" stroke-miterlimit="1.45" shape-rendering="geometricPrecision" font-family="sans-serif" transform="matrix(1,0,0,1,-128,-295)" stroke-linecap="butt">
      <text x="1063.7402" xml:space="preserve" y="868.7043" clip-path="url(#clipPath2)" stroke="none">1</text>
      <text x="919.125" xml:space="preserve" y="868.5428" clip-path="url(#clipPath2)" stroke="none">*</text>
      <path fill="none" d="M675.8786 719.1099 L472.4131 719.1099 L472.4131 767.731" clip-path="url(#clipPath2)"/>
      <path d="M682.8786 719.1099 L675.8786 724.1099 L668.8786 719.1099 L675.8786 714.1099 Z" clip-path="url(#clipPath2)" stroke="none"/>
      <path d="M472.4131 775.731 L477.4131 763.731 L472.4131 766.731 L467.4131 763.731 Z" clip-path="url(#clipPath2)" stroke="none"/>
      <text x="476.4131" xml:space="preserve" y="760.7949" clip-path="url(#clipPath2)" stroke="none">1..2</text>
    </g>
    <g text-rendering="geometricPrecision" stroke-miterlimit="1.45" shape-rendering="geometricPrecision" font-family="sans-serif" transform="matrix(1,0,0,1,-128,-295) translate(495,700)" stroke-linecap="butt">
      <text x="0" xml:space="preserve" y="12" clip-path="url(#clipPath21)" stroke="none">◀ predecessor &amp; current</text>
    </g>
    <g text-rendering="geometricPrecision" stroke-miterlimit="1.45" shape-rendering="geometricPrecision" transform="matrix(1,0,0,1,-128,-295)" stroke-linecap="butt">
      <path fill="none" d="M682.9094 836.7702 L499.9789 836.7702" clip-path="url(#clipPath2)"/>
      <path d="M491.9789 836.7702 L503.9789 841.7702 L500.9789 836.7702 L503.9789 831.7702 Z" clip-path="url(#clipPath2)" stroke="none"/>
      <text x="499" xml:space="preserve" y="870.9245" clip-path="url(#clipPath2)" font-family="sans-serif" stroke="none">1</text>
      <text x="669.875" xml:space="preserve" y="870.9245" clip-path="url(#clipPath2)" font-family="sans-serif" stroke="none">*</text>
      <path fill="none" d="M300.375 699.7338 L300.375 775.7312" clip-path="url(#clipPath2)"/>
      <path d="M300.375 692.7338 L305.375 699.7338 L300.375 706.7338 L295.375 699.7338 Z" clip-path="url(#clipPath2)" stroke="none"/>
      <text x="267.375" xml:space="preserve" y="765.9199" clip-path="url(#clipPath2)" font-family="sans-serif" stroke="none">*</text>
    </g>
    <g text-rendering="geometricPrecision" stroke-miterlimit="1.45" shape-rendering="geometricPrecision" font-family="sans-serif" transform="matrix(1,0,0,1,-128,-295) translate(304,719)" stroke-linecap="butt">
      <text x="0" xml:space="preserve" y="12" clip-path="url(#clipPath22)" stroke="none">does not contain</text>
      <text x="107" xml:space="preserve" y="12" clip-path="url(#clipPath22)" stroke="none"> </text>
      <text x="0" xml:space="preserve" y="27" clip-path="url(#clipPath22)" stroke="none">VCS-specific files ▼</text>
    </g>
    <g text-rendering="geometricPrecision" stroke-miterlimit="1.45" shape-rendering="geometricPrecision" transform="matrix(1,0,0,1,-128,-295)" stroke-linecap="butt">
      <path fill="none" d="M558.9179 394.1897 L753.0302 394.1897 L753.0302 455.9787" clip-path="url(#clipPath2)"/>
      <path d="M551.9179 394.1897 L558.9179 389.1897 L565.9179 394.1897 L558.9179 399.1897 Z" clip-path="url(#clipPath2)" stroke="none"/>
      <path d="M753.0302 463.9787 L758.0302 451.9787 L753.0302 454.9787 L748.0302 451.9787 Z" clip-path="url(#clipPath2)" stroke="none"/>
      <text x="707.1591" xml:space="preserve" y="435.0271" clip-path="url(#clipPath2)" font-family="sans-serif" stroke="none">1..*</text>
      <text x="686.5516" xml:space="preserve" y="448.9958" clip-path="url(#clipPath2)" font-family="sans-serif" stroke="none">{ordered}</text>
    </g>
    <g text-rendering="geometricPrecision" stroke-miterlimit="1.45" shape-rendering="geometricPrecision" font-family="sans-serif" transform="matrix(1,0,0,1,-128,-295) translate(618,375)" stroke-linecap="butt">
      <text x="0" xml:space="preserve" y="12" clip-path="url(#clipPath23)" stroke="none">subsumes ▶</text>
    </g>
    <g text-rendering="geometricPrecision" stroke-miterlimit="1.45" shape-rendering="geometricPrecision" transform="matrix(1,0,0,1,-128,-295)" stroke-linecap="butt">
      <path fill="none" d="M300.375 515.0034 L300.375 582.9868" clip-path="url(#clipPath2)"/>
      <path d="M300.375 508.0034 L305.375 515.0034 L300.375 522.0034 L295.375 515.0034 Z" clip-path="url(#clipPath2)" stroke="none"/>
      <path d="M300.375 590.9868 L305.375 578.9868 L300.375 581.9868 L295.375 578.9868 Z" clip-path="url(#clipPath2)" stroke="none"/>
      <text x="258.9258" xml:space="preserve" y="581.1699" clip-path="url(#clipPath2)" font-family="sans-serif" stroke="none">1..2</text>
    </g>
    <g text-rendering="geometricPrecision" stroke-miterlimit="1.45" shape-rendering="geometricPrecision" font-family="sans-serif" transform="matrix(1,0,0,1,-128,-295) translate(304,542)" stroke-linecap="butt">
      <text x="0" xml:space="preserve" y="12" clip-path="url(#clipPath21)" stroke="none">predecessor &amp; current ▼</text>
    </g>
    <g text-rendering="geometricPrecision" stroke-miterlimit="1.45" shape-rendering="geometricPrecision" transform="matrix(1,0,0,1,-128,-295)" stroke-linecap="butt">
      <path fill="none" d="M492.4979 515.0143 L492.4979 670.2905 L674.9012 670.2905" clip-path="url(#clipPath2)"/>
      <path fill="white" d="M492.4979 508.0143 L497.4979 515.0143 L492.4979 522.0143 L487.4979 515.0143 Z" clip-path="url(#clipPath2)" stroke="none"/>
      <path fill="none" d="M492.4979 508.0143 L497.4979 515.0143 L492.4979 522.0143 L487.4979 515.0143 Z" clip-path="url(#clipPath2)"/>
      <path d="M682.9012 670.2905 L670.9012 665.2905 L673.9012 670.2905 L670.9012 675.2905 Z" clip-path="url(#clipPath2)" stroke="none"/>
      <text x="664.75" xml:space="preserve" y="663.4604" clip-path="url(#clipPath2)" font-family="sans-serif" stroke="none">*</text>
      <text x="496.4979" xml:space="preserve" y="531.2637" clip-path="url(#clipPath2)" font-family="sans-serif" stroke="none">*</text>
    </g>
    <g text-rendering="geometricPrecision" stroke-miterlimit="1.45" shape-rendering="geometricPrecision" font-family="sans-serif" transform="matrix(1,0,0,1,-128,-295) translate(501,636)" stroke-linecap="butt">
      <text x="0" xml:space="preserve" y="12" clip-path="url(#clipPath24)" stroke="none">computes changes based</text>
      <text x="163" xml:space="preserve" y="12" clip-path="url(#clipPath24)" stroke="none"> </text>
      <text x="0" xml:space="preserve" y="27" clip-path="url(#clipPath24)" stroke="none">on subsumed commits ▶</text>
    </g>
    <g text-rendering="geometricPrecision" stroke-miterlimit="1.45" shape-rendering="geometricPrecision" transform="matrix(1,0,0,1,-128,-295)" stroke-linecap="butt">
      <path fill="none" d="M558.842 354.86 L1036.3947 354.86" clip-path="url(#clipPath2)"/>
      <path fill="white" d="M551.842 354.86 L558.842 349.86 L565.842 354.86 L558.842 359.86 Z" clip-path="url(#clipPath2)" stroke="none"/>
      <path fill="none" d="M551.842 354.86 L558.842 349.86 L565.842 354.86 L558.842 359.86 Z" clip-path="url(#clipPath2)"/>
      <path d="M1044.3947 354.86 L1032.3947 349.86 L1035.3947 354.86 L1032.3947 359.86 Z" clip-path="url(#clipPath2)" stroke="none"/>
      <text x="1031.375" xml:space="preserve" y="329.0143" clip-path="url(#clipPath2)" font-family="sans-serif" stroke="none">*</text>
      <text x="558.875" xml:space="preserve" y="329.0143" clip-path="url(#clipPath2)" font-family="sans-serif" stroke="none">*</text>
    </g>
    <g text-rendering="geometricPrecision" stroke-miterlimit="1.45" shape-rendering="geometricPrecision" font-family="sans-serif" transform="matrix(1,0,0,1,-128,-295) translate(721,320)" stroke-linecap="butt">
      <text x="0" xml:space="preserve" y="12" clip-path="url(#clipPath25)" stroke="none">computes issues based</text>
      <text x="149" xml:space="preserve" y="12" clip-path="url(#clipPath25)" stroke="none"> </text>
      <text x="0" xml:space="preserve" y="27" clip-path="url(#clipPath25)" stroke="none">on subsumed commits ▶</text>
    </g>
    <g text-rendering="geometricPrecision" stroke-miterlimit="1.45" shape-rendering="geometricPrecision" transform="matrix(1,0,0,1,-128,-295)" stroke-linecap="butt">
      <path fill="none" d="M578.0594 995.75 L499.9936 995.75" clip-path="url(#clipPath2)"/>
      <path d="M491.9936 995.75 L503.9936 1000.75 L500.9936 995.75 L503.9936 990.75 Z" clip-path="url(#clipPath2)" stroke="none"/>
      <text x="565.0625" xml:space="preserve" y="1029.9043" clip-path="url(#clipPath2)" font-family="sans-serif" stroke="none">*</text>
      <text x="499" xml:space="preserve" y="1029.9043" clip-path="url(#clipPath2)" font-family="sans-serif" stroke="none">1</text>
    </g>
    <g text-rendering="geometricPrecision" stroke-miterlimit="1.45" shape-rendering="geometricPrecision" font-family="sans-serif" transform="matrix(1,0,0,1,-128,-295) translate(504,976)" stroke-linecap="butt">
      <text x="0" xml:space="preserve" y="12" clip-path="url(#clipPath26)" stroke="none">creates ▶</text>
    </g>
    <g text-rendering="geometricPrecision" stroke-miterlimit="1.45" shape-rendering="geometricPrecision" transform="matrix(1,0,0,1,-128,-295)" stroke-linecap="butt">
      <path fill="none" d="M498.9579 902.9927 L988.1552 902.9927" clip-path="url(#clipPath2)"/>
      <path d="M491.9579 902.9927 L498.9579 897.9927 L505.9579 902.9927 L498.9579 907.9927 Z" clip-path="url(#clipPath2)" stroke="none"/>
      <text x="908.832" xml:space="preserve" y="937.147" clip-path="url(#clipPath2)" font-family="sans-serif" stroke="none">* {ordered}</text>
    </g>
    <g text-rendering="geometricPrecision" stroke-miterlimit="1.45" shape-rendering="geometricPrecision" font-family="sans-serif" transform="matrix(1,0,0,1,-128,-295) translate(683,883)" stroke-linecap="butt">
      <text x="0" xml:space="preserve" y="12" clip-path="url(#clipPath27)" stroke="none">blame/annotate ▶</text>
    </g>
    <g text-rendering="geometricPrecision" stroke-miterlimit="1.45" shape-rendering="geometricPrecision" transform="matrix(1,0,0,1,-128,-295)" stroke-linecap="butt">
      <path fill="none" d="M745.0938 1139.4351 L745.0938 1060.2628" clip-path="url(#clipPath2)"/>
      <path d="M745.0938 1052.2628 L740.0938 1064.2628 L745.0938 1061.2628 L750.0938 1064.2628 Z" clip-path="url(#clipPath2)" stroke="none"/>
    </g>
    <g text-rendering="geometricPrecision" stroke-miterlimit="1.45" shape-rendering="geometricPrecision" font-family="sans-serif" transform="matrix(1,0,0,1,-128,-295) translate(749,1088)" stroke-linecap="butt">
      <text x="0" xml:space="preserve" y="12" clip-path="url(#clipPath28)" stroke="none">▲ begin &amp; end</text>
    </g>
    <g text-rendering="geometricPrecision" stroke-miterlimit="1.45" shape-rendering="geometricPrecision" font-family="sans-serif" transform="matrix(1,0,0,1,-128,-295)" stroke-linecap="butt">
      <text x="712.0938" xml:space="preserve" y="1129.6208" clip-path="url(#clipPath2)" stroke="none">*</text>
      <text x="771.2764" xml:space="preserve" y="1070.3887" clip-path="url(#clipPath2)" stroke="none">2</text>
      <path fill="none" d="M578.08 1193.3109 L300.375 1193.3109 L300.375 1038.2275" clip-path="url(#clipPath2)"/>
      <path d="M300.375 1030.2275 L295.375 1042.2275 L300.375 1039.2275 L305.375 1042.2275 Z" clip-path="url(#clipPath2)" stroke="none"/>
    </g>
    <g text-rendering="geometricPrecision" stroke-miterlimit="1.45" shape-rendering="geometricPrecision" font-family="sans-serif" transform="matrix(1,0,0,1,-128,-295) translate(394,1174)" stroke-linecap="butt">
      <text x="0" xml:space="preserve" y="12" clip-path="url(#clipPath17)" stroke="none">◀ references</text>
    </g>
    <g text-rendering="geometricPrecision" stroke-miterlimit="1.45" shape-rendering="geometricPrecision" font-family="sans-serif" transform="matrix(1,0,0,1,-128,-295)" stroke-linecap="butt">
      <text x="304.375" xml:space="preserve" y="1053.5137" clip-path="url(#clipPath2)" stroke="none">1</text>
      <text x="559.9375" xml:space="preserve" y="1186.4808" clip-path="url(#clipPath2)" stroke="none">*</text>
    </g>
  </g>
</svg>
