<?xml version="1.0" encoding="UTF-8"?><svg xmlns="http://www.w3.org/2000/svg" xmlns:xlink="http://www.w3.org/1999/xlink" fill-opacity="1" color-rendering="auto" color-interpolation="auto" text-rendering="auto" stroke="black" stroke-linecap="square" width="1056" stroke-miterlimit="10" shape-rendering="auto" stroke-opacity="1" fill="black" stroke-dasharray="none" font-weight="normal" stroke-width="1" height="725" font-family="'Dialog'" font-style="normal" stroke-linejoin="miter" font-size="12px" stroke-dashoffset="0" image-rendering="auto">
  <!--Generated by ySVG 2.5-->
  <defs id="genericDefs"/>
  <g>
    <defs id="defs1">
      <clipPath clipPathUnits="userSpaceOnUse" id="clipPath1">
        <path d="M0 0 L1056 0 L1056 725 L0 725 L0 0 Z"/>
      </clipPath>
      <clipPath clipPathUnits="userSpaceOnUse" id="clipPath2">
        <path d="M128 295 L1184 295 L1184 1020 L128 1020 L128 295 Z"/>
      </clipPath>
      <clipPath clipPathUnits="userSpaceOnUse" id="clipPath3">
        <path d="M705 463 L705 592 L934 592 L934 463 Z"/>
      </clipPath>
      <clipPath clipPathUnits="userSpaceOnUse" id="clipPath4">
        <path d="M995 310 L995 399 L1168 399 L1168 310 Z"/>
      </clipPath>
      <clipPath clipPathUnits="userSpaceOnUse" id="clipPath5">
        <path d="M995 463 L995 537 L1168 537 L1168 463 Z"/>
      </clipPath>
      <clipPath clipPathUnits="userSpaceOnUse" id="clipPath6">
        <path d="M705 655 L705 729 L934 729 L934 655 Z"/>
      </clipPath>
      <clipPath clipPathUnits="userSpaceOnUse" id="clipPath7">
        <path d="M1029 634 L1029 747 L1168 747 L1168 634 Z"/>
      </clipPath>
      <clipPath clipPathUnits="userSpaceOnUse" id="clipPath8">
        <path d="M705 789 L705 851 L934 851 L934 789 Z"/>
      </clipPath>
      <clipPath clipPathUnits="userSpaceOnUse" id="clipPath9">
        <path d="M1029 777 L1029 862 L1168 862 L1168 777 Z"/>
      </clipPath>
      <clipPath clipPathUnits="userSpaceOnUse" id="clipPath10">
        <path d="M143 775 L143 1001 L456 1001 L456 775 Z"/>
      </clipPath>
      <clipPath clipPathUnits="userSpaceOnUse" id="clipPath11">
        <path d="M143 591 L143 692 L456 692 L456 591 Z"/>
      </clipPath>
      <clipPath clipPathUnits="userSpaceOnUse" id="clipPath12">
        <path d="M143 310 L143 508 L551 508 L551 310 Z"/>
      </clipPath>
      <clipPath clipPathUnits="userSpaceOnUse" id="clipPath13">
        <path d="M577 928 L577 1002 L806 1002 L806 928 Z"/>
      </clipPath>
      <clipPath clipPathUnits="userSpaceOnUse" id="clipPath14">
        <path d="M939 883 L939 1001 L1168 1001 L1168 883 Z"/>
      </clipPath>
      <clipPath clipPathUnits="userSpaceOnUse" id="clipPath15">
        <path d="M0 0 L0 15 L81 15 L81 0 Z"/>
      </clipPath>
      <clipPath clipPathUnits="userSpaceOnUse" id="clipPath16">
        <path d="M0 0 L0 15 L75 15 L75 0 Z"/>
      </clipPath>
      <clipPath clipPathUnits="userSpaceOnUse" id="clipPath17">
        <path d="M0 0 L0 15 L156 15 L156 0 Z"/>
      </clipPath>
      <clipPath clipPathUnits="userSpaceOnUse" id="clipPath18">
        <path d="M0 0 L0 30 L117 30 L117 0 Z"/>
      </clipPath>
      <clipPath clipPathUnits="userSpaceOnUse" id="clipPath19">
        <path d="M0 0 L0 15 L77 15 L77 0 Z"/>
      </clipPath>
      <clipPath clipPathUnits="userSpaceOnUse" id="clipPath20">
        <path d="M0 0 L0 30 L163 30 L163 0 Z"/>
      </clipPath>
      <clipPath clipPathUnits="userSpaceOnUse" id="clipPath21">
        <path d="M0 0 L0 30 L154 30 L154 0 Z"/>
      </clipPath>
      <clipPath clipPathUnits="userSpaceOnUse" id="clipPath22">
        <path d="M0 0 L0 15 L111 15 L111 0 Z"/>
      </clipPath>
      <clipPath clipPathUnits="userSpaceOnUse" id="clipPath23">
        <path d="M0 0 L0 15 L113 15 L113 0 Z"/>
      </clipPath>
    </defs>
    <g fill="white" text-rendering="geometricPrecision" shape-rendering="geometricPrecision" transform="translate(-128,-295)" stroke="white">
      <rect x="128" width="1056" height="725" y="295" clip-path="url(#clipPath2)" stroke="none"/>
    </g>
    <g fill="white" text-rendering="geometricPrecision" shape-rendering="geometricPrecision" transform="matrix(1,0,0,1,-128,-295)" stroke="white">
      <rect x="705.375" width="229.25" height="129" y="463.9509" clip-path="url(#clipPath2)" stroke="none"/>
    </g>
    <g text-rendering="geometricPrecision" stroke-miterlimit="1.45" shape-rendering="geometricPrecision" transform="matrix(1,0,0,1,-128,-295)" stroke-linecap="butt">
      <rect fill="none" x="705.375" width="229.25" height="129" y="463.9509" clip-path="url(#clipPath2)"/>
      <text x="791.8831" font-size="13px" y="481.0178" clip-path="url(#clipPath3)" font-family="sans-serif" stroke="none" font-weight="bold" xml:space="preserve">Commit</text>
      <line stroke-linecap="square" clip-path="url(#clipPath3)" fill="none" x1="706" x2="933" y1="489" y2="489" stroke-miterlimit="10"/>
      <text x="710.375" xml:space="preserve" y="505.2224" clip-path="url(#clipPath3)" font-family="sans-serif" stroke="none">id: String</text>
      <text x="710.375" xml:space="preserve" y="519.1912" clip-path="url(#clipPath3)" font-family="sans-serif" stroke="none">author: String</text>
      <text x="710.375" xml:space="preserve" y="533.1599" clip-path="url(#clipPath3)" font-family="sans-serif" stroke="none">message: String</text>
      <text x="710.375" xml:space="preserve" y="547.1287" clip-path="url(#clipPath3)" font-family="sans-serif" stroke="none">dateTime: LocalDateTime</text>
      <text x="710.375" xml:space="preserve" y="561.0974" clip-path="url(#clipPath3)" font-family="sans-serif" stroke="none">parentIds: List&lt;String&gt;</text>
      <line stroke-linecap="square" clip-path="url(#clipPath3)" fill="none" x1="706" x2="933" y1="568" y2="568" stroke-miterlimit="10"/>
      <text x="710.375" xml:space="preserve" y="585.0662" clip-path="url(#clipPath3)" font-family="sans-serif" stroke="none">isMerge(): boolean</text>
    </g>
    <g fill="white" text-rendering="geometricPrecision" shape-rendering="geometricPrecision" transform="matrix(1,0,0,1,-128,-295)" stroke="white">
      <rect x="995.625" width="173" height="89.72" y="310" clip-path="url(#clipPath2)" stroke="none"/>
    </g>
    <g text-rendering="geometricPrecision" stroke-miterlimit="1.45" shape-rendering="geometricPrecision" transform="matrix(1,0,0,1,-128,-295)" stroke-linecap="butt">
      <rect fill="none" x="995.625" width="173" height="89.72" y="310" clip-path="url(#clipPath2)"/>
      <text x="1062.9329" font-size="13px" y="327.0669" clip-path="url(#clipPath4)" font-family="sans-serif" stroke="none" font-weight="bold" xml:space="preserve">Issue</text>
      <line stroke-linecap="square" clip-path="url(#clipPath4)" fill="none" x1="996" x2="1167" y1="335" y2="335" stroke-miterlimit="10"/>
      <text x="1000.625" xml:space="preserve" y="351.2715" clip-path="url(#clipPath4)" font-family="sans-serif" stroke="none">id: String</text>
      <text x="1000.625" xml:space="preserve" y="365.2402" clip-path="url(#clipPath4)" font-family="sans-serif" stroke="none">author: String</text>
      <text x="1000.625" xml:space="preserve" y="379.209" clip-path="url(#clipPath4)" font-family="sans-serif" stroke="none">title: String</text>
      <text x="1000.625" xml:space="preserve" y="393.1777" clip-path="url(#clipPath4)" font-family="sans-serif" stroke="none">dateTime: LocalDateTime</text>
      <line stroke-linecap="square" clip-path="url(#clipPath4)" fill="none" x1="996" x2="1167" y1="401" y2="401" stroke-miterlimit="10"/>
    </g>
    <g fill="white" text-rendering="geometricPrecision" shape-rendering="geometricPrecision" transform="matrix(1,0,0,1,-128,-295)" stroke="white">
      <rect x="995.625" width="173" height="74" y="463.9509" clip-path="url(#clipPath2)" stroke="none"/>
    </g>
    <g text-rendering="geometricPrecision" stroke-miterlimit="1.45" shape-rendering="geometricPrecision" transform="matrix(1,0,0,1,-128,-295)" stroke-linecap="butt">
      <rect fill="none" x="995.625" width="173" height="74" y="463.9509" clip-path="url(#clipPath2)"/>
      <text x="1047.2002" font-size="13px" y="481.0178" clip-path="url(#clipPath5)" font-family="sans-serif" stroke="none" font-weight="bold" xml:space="preserve">Comment</text>
      <line stroke-linecap="square" clip-path="url(#clipPath5)" fill="none" x1="996" x2="1167" y1="489" y2="489" stroke-miterlimit="10"/>
      <text x="1000.625" xml:space="preserve" y="505.2224" clip-path="url(#clipPath5)" font-family="sans-serif" stroke="none">author: String</text>
      <text x="1000.625" xml:space="preserve" y="519.1912" clip-path="url(#clipPath5)" font-family="sans-serif" stroke="none">message: String</text>
      <text x="1000.625" xml:space="preserve" y="533.1599" clip-path="url(#clipPath5)" font-family="sans-serif" stroke="none">dateTime: LocalDateTime</text>
      <line stroke-linecap="square" clip-path="url(#clipPath5)" fill="none" x1="996" x2="1167" y1="540" y2="540" stroke-miterlimit="10"/>
    </g>
    <g fill="white" text-rendering="geometricPrecision" shape-rendering="geometricPrecision" transform="matrix(1,0,0,1,-128,-295)" stroke="white">
      <rect x="705.375" width="229.25" height="74" y="655.25" clip-path="url(#clipPath2)" stroke="none"/>
    </g>
    <g text-rendering="geometricPrecision" stroke-miterlimit="1.45" shape-rendering="geometricPrecision" transform="matrix(1,0,0,1,-128,-295)" stroke-linecap="butt">
      <rect fill="none" x="705.375" width="229.25" height="74" y="655.25" clip-path="url(#clipPath2)"/>
      <text x="779.2227" font-size="13px" y="672.3169" clip-path="url(#clipPath6)" font-family="sans-serif" stroke="none" font-weight="bold" xml:space="preserve">FileChange</text>
      <line stroke-linecap="square" clip-path="url(#clipPath6)" fill="none" x1="706" x2="933" y1="680" y2="680" stroke-miterlimit="10"/>
      <line stroke-linecap="square" clip-path="url(#clipPath6)" fill="none" x1="706" x2="933" y1="690" y2="690" stroke-miterlimit="10"/>
      <text x="710.375" xml:space="preserve" y="706.5215" clip-path="url(#clipPath6)" font-family="sans-serif" stroke="none">computeDiff(): List&lt;LineChange&gt;</text>
      <text x="710.375" xml:space="preserve" y="720.4902" clip-path="url(#clipPath6)" font-family="sans-serif" stroke="none">computeLineDelta(): int</text>
    </g>
    <g fill="white" text-rendering="geometricPrecision" shape-rendering="geometricPrecision" transform="matrix(1,0,0,1,-128,-295)" stroke="white">
      <rect x="1029.625" width="139" height="113" y="634.75" clip-path="url(#clipPath2)" stroke="none"/>
    </g>
    <g text-rendering="geometricPrecision" stroke-miterlimit="1.45" shape-rendering="geometricPrecision" transform="matrix(1,0,0,1,-128,-295)" stroke-linecap="butt">
      <rect fill="none" x="1029.625" width="139" height="113" y="634.75" clip-path="url(#clipPath2)"/>
      <text x="1040.5459" xml:space="preserve" y="650.8887" clip-path="url(#clipPath7)" font-family="sans-serif" stroke="none">&lt;&lt;enumeration&gt;&gt;</text>
      <text x="1081.3928" font-size="13px" y="674.7856" clip-path="url(#clipPath7)" font-family="sans-serif" stroke="none" font-weight="bold" xml:space="preserve">Type</text>
      <line stroke-linecap="square" clip-path="url(#clipPath7)" fill="none" x1="1030" x2="1167" y1="682" y2="682" stroke-miterlimit="10"/>
      <text x="1034.625" xml:space="preserve" y="698.9902" clip-path="url(#clipPath7)" font-family="sans-serif" stroke="none">ADD</text>
      <text x="1034.625" xml:space="preserve" y="712.959" clip-path="url(#clipPath7)" font-family="sans-serif" stroke="none">REMOVE</text>
      <text x="1034.625" xml:space="preserve" y="726.9277" clip-path="url(#clipPath7)" font-family="sans-serif" stroke="none">MODIFY</text>
      <text x="1034.625" xml:space="preserve" y="740.8965" clip-path="url(#clipPath7)" font-family="sans-serif" stroke="none">RELOCATE</text>
      <line stroke-linecap="square" clip-path="url(#clipPath7)" fill="none" x1="1030" x2="1167" y1="748" y2="748" stroke-miterlimit="10"/>
    </g>
    <g fill="white" text-rendering="geometricPrecision" shape-rendering="geometricPrecision" transform="matrix(1,0,0,1,-128,-295)" stroke="white">
      <rect x="705.375" width="229.25" height="62.5" y="789.5491" clip-path="url(#clipPath2)" stroke="none"/>
    </g>
    <g text-rendering="geometricPrecision" stroke-miterlimit="1.45" shape-rendering="geometricPrecision" transform="matrix(1,0,0,1,-128,-295)" stroke-linecap="butt">
      <rect fill="none" x="705.375" width="229.25" height="62.5" y="789.5491" clip-path="url(#clipPath2)"/>
      <text x="777.1216" font-size="13px" y="806.616" clip-path="url(#clipPath8)" font-family="sans-serif" stroke="none" font-weight="bold" xml:space="preserve">LineChange</text>
      <line stroke-linecap="square" clip-path="url(#clipPath8)" fill="none" x1="706" x2="933" y1="814" y2="814" stroke-miterlimit="10"/>
      <text x="710.375" xml:space="preserve" y="830.8206" clip-path="url(#clipPath8)" font-family="sans-serif" stroke="none">line: int</text>
      <text x="710.375" xml:space="preserve" y="844.7893" clip-path="url(#clipPath8)" font-family="sans-serif" stroke="none">content: String</text>
      <line stroke-linecap="square" clip-path="url(#clipPath8)" fill="none" x1="706" x2="933" y1="852" y2="852" stroke-miterlimit="10"/>
    </g>
    <g fill="white" text-rendering="geometricPrecision" shape-rendering="geometricPrecision" transform="matrix(1,0,0,1,-128,-295)" stroke="white">
      <rect x="1029.625" width="139" height="85.2" y="777.7991" clip-path="url(#clipPath2)" stroke="none"/>
    </g>
    <g text-rendering="geometricPrecision" stroke-miterlimit="1.45" shape-rendering="geometricPrecision" transform="matrix(1,0,0,1,-128,-295)" stroke-linecap="butt">
      <rect fill="none" x="1029.625" width="139" height="85.2" y="777.7991" clip-path="url(#clipPath2)"/>
      <text x="1040.5459" xml:space="preserve" y="793.9377" clip-path="url(#clipPath9)" font-family="sans-serif" stroke="none">&lt;&lt;enumeration&gt;&gt;</text>
      <text x="1081.3928" font-size="13px" y="817.8347" clip-path="url(#clipPath9)" font-family="sans-serif" stroke="none" font-weight="bold" xml:space="preserve">Type</text>
      <line stroke-linecap="square" clip-path="url(#clipPath9)" fill="none" x1="1030" x2="1167" y1="825" y2="825" stroke-miterlimit="10"/>
      <text x="1034.625" xml:space="preserve" y="842.0393" clip-path="url(#clipPath9)" font-family="sans-serif" stroke="none">INSERT</text>
      <text x="1034.625" xml:space="preserve" y="856.0081" clip-path="url(#clipPath9)" font-family="sans-serif" stroke="none">DELETE</text>
      <line stroke-linecap="square" clip-path="url(#clipPath9)" fill="none" x1="1030" x2="1167" y1="863" y2="863" stroke-miterlimit="10"/>
    </g>
    <g fill="white" text-rendering="geometricPrecision" shape-rendering="geometricPrecision" transform="matrix(1,0,0,1,-128,-295)" stroke="white">
      <rect x="143.75" width="313.25" height="226.5" y="775.75" clip-path="url(#clipPath2)" stroke="none"/>
    </g>
    <g text-rendering="geometricPrecision" stroke-miterlimit="1.45" shape-rendering="geometricPrecision" transform="matrix(1,0,0,1,-128,-295)" stroke-linecap="butt">
      <rect fill="none" x="143.75" width="313.25" height="226.5" y="775.75" clip-path="url(#clipPath2)"/>
      <text x="272.5881" font-size="13px" y="792.8169" clip-path="url(#clipPath10)" font-family="sans-serif" stroke="none" font-weight="bold" xml:space="preserve">VCSFile</text>
      <line stroke-linecap="square" clip-path="url(#clipPath10)" fill="none" x1="144" x2="456" y1="800" y2="800" stroke-miterlimit="10"/>
      <text x="148.75" xml:space="preserve" y="817.0215" clip-path="url(#clipPath10)" font-family="sans-serif" stroke="none">path: String</text>
      <text x="148.75" xml:space="preserve" y="830.9902" clip-path="url(#clipPath10)" font-family="sans-serif" stroke="none">relativePath: String</text>
      <text x="148.75" xml:space="preserve" y="844.959" clip-path="url(#clipPath10)" font-family="sans-serif" stroke="none">charset: Charset [0..1]</text>
      <line stroke-linecap="square" clip-path="url(#clipPath10)" fill="none" x1="144" x2="456" y1="852" y2="852" stroke-miterlimit="10"/>
      <text x="148.75" xml:space="preserve" y="868.9277" clip-path="url(#clipPath10)" font-family="sans-serif" stroke="none">readAllBytes(): byte[]</text>
      <text x="148.75" xml:space="preserve" y="882.8965" clip-path="url(#clipPath10)" font-family="sans-serif" stroke="none">readContent(): String</text>
      <text x="148.75" xml:space="preserve" y="896.8652" clip-path="url(#clipPath10)" font-family="sans-serif" stroke="none">readLinesWithEOL(): List&lt;String&gt;</text>
      <text x="148.75" xml:space="preserve" y="910.834" clip-path="url(#clipPath10)" font-family="sans-serif" stroke="none">readLineInfo(): List&lt;LineInfo&gt;</text>
      <text x="148.75" xml:space="preserve" y="924.8027" clip-path="url(#clipPath10)" font-family="sans-serif" stroke="none">toFile(): File</text>
      <text x="148.75" xml:space="preserve" y="938.7715" clip-path="url(#clipPath10)" font-family="sans-serif" stroke="none">toRelativeFile(): File</text>
      <text x="148.75" xml:space="preserve" y="952.7402" clip-path="url(#clipPath10)" font-family="sans-serif" stroke="none">toPath(): Path</text>
      <text x="148.75" xml:space="preserve" y="966.709" clip-path="url(#clipPath10)" font-family="sans-serif" stroke="none">toRelativePath(): Path</text>
      <text x="148.75" xml:space="preserve" y="980.6777" clip-path="url(#clipPath10)" font-family="sans-serif" stroke="none">mapOffset(offset: int, tabSize: int): Position</text>
      <text x="148.75" xml:space="preserve" y="994.6465" clip-path="url(#clipPath10)" font-family="sans-serif" stroke="none">mapPosition(position: Position): int</text>
    </g>
    <g fill="white" text-rendering="geometricPrecision" shape-rendering="geometricPrecision" transform="matrix(1,0,0,1,-128,-295)" stroke="white">
      <rect x="143.75" width="313.25" height="101.75" y="591" clip-path="url(#clipPath2)" stroke="none"/>
    </g>
    <g text-rendering="geometricPrecision" stroke-miterlimit="1.45" shape-rendering="geometricPrecision" transform="matrix(1,0,0,1,-128,-295)" stroke-linecap="butt">
      <rect fill="none" x="143.75" width="313.25" height="101.75" y="591" clip-path="url(#clipPath2)"/>
      <text x="269.3064" font-size="13px" y="608.0669" clip-path="url(#clipPath11)" font-family="sans-serif" stroke="none" font-weight="bold" xml:space="preserve">Revision</text>
      <line stroke-linecap="square" clip-path="url(#clipPath11)" fill="none" x1="144" x2="456" y1="616" y2="616" stroke-miterlimit="10"/>
      <text x="148.75" xml:space="preserve" y="632.2715" clip-path="url(#clipPath11)" font-family="sans-serif" stroke="none">id: String</text>
      <text x="148.75" xml:space="preserve" y="646.2402" clip-path="url(#clipPath11)" font-family="sans-serif" stroke="none">output: Path</text>
      <line stroke-linecap="square" clip-path="url(#clipPath11)" fill="none" x1="144" x2="456" y1="654" y2="654" stroke-miterlimit="10"/>
      <text x="148.75" xml:space="preserve" y="670.209" clip-path="url(#clipPath11)" font-family="sans-serif" stroke="none">getFilesBySuffix(suffix: String): List&lt;VCSFile&gt;</text>
      <text x="148.75" xml:space="preserve" y="684.1777" clip-path="url(#clipPath11)" font-family="sans-serif" stroke="none">getFilesByPrefix(prefix: String): List&lt;VCSFile&gt;</text>
    </g>
    <g fill="white" text-rendering="geometricPrecision" shape-rendering="geometricPrecision" transform="matrix(1,0,0,1,-128,-295)" stroke="white">
      <rect x="143.75" width="408.125" height="198" y="310" clip-path="url(#clipPath2)" stroke="none"/>
    </g>
    <g text-rendering="geometricPrecision" stroke-miterlimit="1.45" shape-rendering="geometricPrecision" transform="matrix(1,0,0,1,-128,-295)" stroke-linecap="butt">
      <rect fill="none" x="143.75" width="408.125" height="198" y="310" clip-path="url(#clipPath2)"/>
      <text x="293.6638" font-size="13px" y="327.0669" clip-path="url(#clipPath12)" font-family="sans-serif" stroke="none" font-weight="bold" xml:space="preserve">RevisionRange</text>
      <line stroke-linecap="square" clip-path="url(#clipPath12)" fill="none" x1="144" x2="550" y1="335" y2="335" stroke-miterlimit="10"/>
      <text x="148.75" xml:space="preserve" y="351.2715" clip-path="url(#clipPath12)" font-family="sans-serif" stroke="none">ordinal: int</text>
      <line stroke-linecap="square" clip-path="url(#clipPath12)" fill="none" x1="144" x2="550" y1="359" y2="359" stroke-miterlimit="10"/>
      <text x="148.75" xml:space="preserve" y="375.2402" clip-path="url(#clipPath12)" font-family="sans-serif" stroke="none">getLatestCommit(): Commit</text>
      <text x="148.75" xml:space="preserve" y="389.209" clip-path="url(#clipPath12)" font-family="sans-serif" stroke="none">getAddedFiles(): List&lt;FileChange&gt;</text>
      <text x="148.75" xml:space="preserve" y="403.1777" clip-path="url(#clipPath12)" font-family="sans-serif" stroke="none">getRemovedFiles(): List&lt;FileChange&gt;</text>
      <text x="148.75" xml:space="preserve" y="417.1465" clip-path="url(#clipPath12)" font-family="sans-serif" stroke="none">getModifiedFiles(): List&lt;FileChange&gt;</text>
      <text x="148.75" xml:space="preserve" y="431.1152" clip-path="url(#clipPath12)" font-family="sans-serif" stroke="none">getRelocatedFiles(): List&lt;FileChange&gt;</text>
      <text x="148.75" xml:space="preserve" y="445.084" clip-path="url(#clipPath12)" font-family="sans-serif" stroke="none">getFileChangesBySuffix(suffix: String): List&lt;FileChange&gt;</text>
      <text x="148.75" xml:space="preserve" y="459.0527" clip-path="url(#clipPath12)" font-family="sans-serif" stroke="none">getFileChangesByPrefix(prefix: String): List&lt;FileChange&gt;</text>
      <text x="148.75" xml:space="preserve" y="473.0215" clip-path="url(#clipPath12)" font-family="sans-serif" stroke="none">isFirst(): boolean</text>
      <text x="148.75" xml:space="preserve" y="486.9902" clip-path="url(#clipPath12)" font-family="sans-serif" stroke="none">ifFirst(action: Consumer&lt;RevisionRange&gt;): void</text>
      <text x="148.75" xml:space="preserve" y="500.959" clip-path="url(#clipPath12)" font-family="sans-serif" stroke="none">ifNotFirst(action: Consumer&lt;RevisionRange&gt;): void</text>
    </g>
    <g fill="white" text-rendering="geometricPrecision" shape-rendering="geometricPrecision" transform="matrix(1,0,0,1,-128,-295)" stroke="white">
      <rect x="577.375" width="229.25" height="74" y="928.25" clip-path="url(#clipPath2)" stroke="none"/>
    </g>
    <g text-rendering="geometricPrecision" stroke-miterlimit="1.45" shape-rendering="geometricPrecision" transform="matrix(1,0,0,1,-128,-295)" stroke-linecap="butt">
      <rect fill="none" x="577.375" width="229.25" height="74" y="928.25" clip-path="url(#clipPath2)"/>
      <text x="662.2454" font-size="13px" y="945.3169" clip-path="url(#clipPath13)" font-family="sans-serif" stroke="none" font-weight="bold" xml:space="preserve">Position</text>
      <line stroke-linecap="square" clip-path="url(#clipPath13)" fill="none" x1="578" x2="805" y1="953" y2="953" stroke-miterlimit="10"/>
      <text x="582.375" xml:space="preserve" y="969.5215" clip-path="url(#clipPath13)" font-family="sans-serif" stroke="none">line: int</text>
      <text x="582.375" xml:space="preserve" y="983.4902" clip-path="url(#clipPath13)" font-family="sans-serif" stroke="none">column: int</text>
      <text x="582.375" xml:space="preserve" y="997.459" clip-path="url(#clipPath13)" font-family="sans-serif" stroke="none">tabSize: int</text>
      <line stroke-linecap="square" clip-path="url(#clipPath13)" fill="none" x1="578" x2="805" y1="1005" y2="1005" stroke-miterlimit="10"/>
    </g>
    <g fill="white" text-rendering="geometricPrecision" shape-rendering="geometricPrecision" transform="matrix(1,0,0,1,-128,-295)" stroke="white">
      <rect x="939.375" width="229.25" height="118.75" y="883.5" clip-path="url(#clipPath2)" stroke="none"/>
    </g>
    <g text-rendering="geometricPrecision" stroke-miterlimit="1.45" shape-rendering="geometricPrecision" transform="matrix(1,0,0,1,-128,-295)" stroke-linecap="butt">
      <rect fill="none" x="939.375" width="229.25" height="118.75" y="883.5" clip-path="url(#clipPath2)"/>
      <text x="1024.2549" font-size="13px" y="900.5669" clip-path="url(#clipPath14)" font-family="sans-serif" stroke="none" font-weight="bold" xml:space="preserve">LineInfo</text>
      <line stroke-linecap="square" clip-path="url(#clipPath14)" fill="none" x1="940" x2="1167" y1="908" y2="908" stroke-miterlimit="10"/>
      <text x="944.375" xml:space="preserve" y="924.7715" clip-path="url(#clipPath14)" font-family="sans-serif" stroke="none">id: String</text>
      <text x="944.375" xml:space="preserve" y="938.7402" clip-path="url(#clipPath14)" font-family="sans-serif" stroke="none">author: String</text>
      <text x="944.375" xml:space="preserve" y="952.709" clip-path="url(#clipPath14)" font-family="sans-serif" stroke="none">message: String</text>
      <text x="944.375" xml:space="preserve" y="966.6777" clip-path="url(#clipPath14)" font-family="sans-serif" stroke="none">dateTime: LocalDateTime</text>
      <text x="944.375" xml:space="preserve" y="980.6465" clip-path="url(#clipPath14)" font-family="sans-serif" stroke="none">line: int</text>
      <text x="944.375" xml:space="preserve" y="994.6152" clip-path="url(#clipPath14)" font-family="sans-serif" stroke="none">content: String</text>
      <line stroke-linecap="square" clip-path="url(#clipPath14)" fill="none" x1="940" x2="1167" y1="1002" y2="1002" stroke-miterlimit="10"/>
      <path fill="none" d="M879.6691 456.9656 L879.6691 394.034 L987.6475 394.034" clip-path="url(#clipPath2)"/>
      <path fill="white" d="M879.6691 463.9656 L874.6691 456.9656 L879.6691 449.9656 L884.6691 456.9656 Z" clip-path="url(#clipPath2)" stroke="none"/>
      <path fill="none" d="M879.6691 463.9656 L874.6691 456.9656 L879.6691 449.9656 L884.6691 456.9656 Z" clip-path="url(#clipPath2)"/>
      <path d="M995.6475 394.034 L983.6475 389.034 L986.6475 394.034 L983.6475 399.034 Z" clip-path="url(#clipPath2)" stroke="none"/>
      <text x="883.6691" xml:space="preserve" y="448.9958" clip-path="url(#clipPath2)" font-family="sans-serif" stroke="none">*</text>
      <text x="977.5" xml:space="preserve" y="409.1727" clip-path="url(#clipPath2)" font-family="sans-serif" stroke="none">*</text>
    </g>
    <g text-rendering="geometricPrecision" stroke-miterlimit="1.45" shape-rendering="geometricPrecision" font-family="sans-serif" transform="matrix(1,0,0,1,-128,-295) translate(892,375)" stroke-linecap="butt">
      <text x="0" xml:space="preserve" y="12" clip-path="url(#clipPath15)" stroke="none">references ▶</text>
    </g>
    <g text-rendering="geometricPrecision" stroke-miterlimit="1.45" shape-rendering="geometricPrecision" transform="matrix(1,0,0,1,-128,-295)" stroke-linecap="butt">
      <path fill="none" d="M1082.125 406.6931 L1082.125 463.9186" clip-path="url(#clipPath2)"/>
      <path d="M1082.125 399.6931 L1087.125 406.6931 L1082.125 413.6931 L1077.125 406.6931 Z" clip-path="url(#clipPath2)" stroke="none"/>
      <text x="1109.125" xml:space="preserve" y="454.1208" clip-path="url(#clipPath2)" font-family="sans-serif" stroke="none">*</text>
      <path fill="none" d="M820 599.9548 L820 647.2567" clip-path="url(#clipPath2)"/>
      <path d="M820 592.9548 L825 599.9548 L820 606.9548 L815 599.9548 Z" clip-path="url(#clipPath2)" stroke="none"/>
      <path d="M820 655.2567 L825 643.2567 L820 646.2567 L815 643.2567 Z" clip-path="url(#clipPath2)" stroke="none"/>
      <text x="847" xml:space="preserve" y="645.4199" clip-path="url(#clipPath2)" font-family="sans-serif" stroke="none">*</text>
      <path fill="none" d="M938.6539 692.25 L1029.5906 692.25" clip-path="url(#clipPath2)"/>
    </g>
    <g stroke-linecap="butt" transform="matrix(1,0,0,1,-128,-295)" fill-opacity="0" fill="rgb(0,0,0)" text-rendering="geometricPrecision" shape-rendering="geometricPrecision" stroke="rgb(0,0,0)" stroke-opacity="0" stroke-miterlimit="1.45">
      <path d="M930.6539 692.25 C930.6539 690.0408 932.4447 688.25 934.6539 688.25 C936.863 688.25 938.6539 690.0408 938.6539 692.25 C938.6539 694.4592 936.863 696.25 934.6539 696.25 C932.4447 696.25 930.6539 694.4592 930.6539 692.25 Z" stroke="none" clip-path="url(#clipPath2)"/>
    </g>
    <g text-rendering="geometricPrecision" stroke-miterlimit="1.45" shape-rendering="geometricPrecision" transform="matrix(1,0,0,1,-128,-295)" stroke-linecap="butt">
      <path fill="none" d="M930.6539 692.25 C930.6539 690.0408 932.4447 688.25 934.6539 688.25 C936.863 688.25 938.6539 690.0408 938.6539 692.25 C938.6539 694.4592 936.863 696.25 934.6539 696.25 C932.4447 696.25 930.6539 694.4592 930.6539 692.25 Z" clip-path="url(#clipPath2)"/>
      <text x="941.625" xml:space="preserve" y="726.4043" clip-path="url(#clipPath2)" font-family="sans-serif" stroke="none">*</text>
      <text x="1014.9902" xml:space="preserve" y="726.4043" clip-path="url(#clipPath2)" font-family="sans-serif" stroke="none">1</text>
      <path fill="none" d="M820 729.2518 L820 781.5532" clip-path="url(#clipPath2)"/>
      <path d="M820 789.5532 L825 777.5532 L820 780.5532 L815 777.5532 Z" clip-path="url(#clipPath2)" stroke="none"/>
      <text x="743.707" xml:space="preserve" y="774.594" clip-path="url(#clipPath2)" font-family="sans-serif" stroke="none">* {ordered}</text>
    </g>
    <g text-rendering="geometricPrecision" stroke-miterlimit="1.45" shape-rendering="geometricPrecision" font-family="sans-serif" transform="matrix(1,0,0,1,-128,-295) translate(824,751)" stroke-linecap="butt">
      <text x="0" xml:space="preserve" y="12" clip-path="url(#clipPath16)" stroke="none">computes ▼</text>
    </g>
    <g text-rendering="geometricPrecision" stroke-miterlimit="1.45" shape-rendering="geometricPrecision" transform="matrix(1,0,0,1,-128,-295)" stroke-linecap="butt">
      <path fill="none" d="M938.6074 820.7991 L1029.6521 820.7991" clip-path="url(#clipPath2)"/>
    </g>
    <g stroke-linecap="butt" transform="matrix(1,0,0,1,-128,-295)" fill-opacity="0" fill="rgb(0,0,0)" text-rendering="geometricPrecision" shape-rendering="geometricPrecision" stroke="rgb(0,0,0)" stroke-opacity="0" stroke-miterlimit="1.45">
      <path d="M930.6074 820.7991 C930.6074 818.5899 932.3982 816.7991 934.6074 816.7991 C936.8165 816.7991 938.6074 818.5899 938.6074 820.7991 C938.6074 823.0082 936.8165 824.7991 934.6074 824.7991 C932.3982 824.7991 930.6074 823.0082 930.6074 820.7991 Z" stroke="none" clip-path="url(#clipPath2)"/>
    </g>
    <g text-rendering="geometricPrecision" stroke-miterlimit="1.45" shape-rendering="geometricPrecision" transform="matrix(1,0,0,1,-128,-295)" stroke-linecap="butt">
      <path fill="none" d="M930.6074 820.7991 C930.6074 818.5899 932.3982 816.7991 934.6074 816.7991 C936.8165 816.7991 938.6074 818.5899 938.6074 820.7991 C938.6074 823.0082 936.8165 824.7991 934.6074 824.7991 C932.3982 824.7991 930.6074 823.0082 930.6074 820.7991 Z" clip-path="url(#clipPath2)"/>
      <text x="941.625" xml:space="preserve" y="854.9534" clip-path="url(#clipPath2)" font-family="sans-serif" stroke="none">*</text>
      <text x="1014.9902" xml:space="preserve" y="854.9534" clip-path="url(#clipPath2)" font-family="sans-serif" stroke="none">1</text>
      <path fill="none" d="M698.3388 719.1099 L439.3816 719.1099 L439.3816 767.7601" clip-path="url(#clipPath2)"/>
      <path d="M705.3388 719.1099 L698.3388 724.1099 L691.3388 719.1099 L698.3388 714.1099 Z" clip-path="url(#clipPath2)" stroke="none"/>
      <path d="M439.3816 775.7601 L444.3816 763.7601 L439.3816 766.7601 L434.3816 763.7601 Z" clip-path="url(#clipPath2)" stroke="none"/>
      <text x="443.3816" xml:space="preserve" y="760.7949" clip-path="url(#clipPath2)" font-family="sans-serif" stroke="none">1..2</text>
    </g>
    <g text-rendering="geometricPrecision" stroke-miterlimit="1.45" shape-rendering="geometricPrecision" font-family="sans-serif" transform="matrix(1,0,0,1,-128,-295) translate(489,700)" stroke-linecap="butt">
      <text x="0" xml:space="preserve" y="12" clip-path="url(#clipPath17)" stroke="none">◀ predecessor &amp; current</text>
    </g>
    <g text-rendering="geometricPrecision" stroke-miterlimit="1.45" shape-rendering="geometricPrecision" transform="matrix(1,0,0,1,-128,-295)" stroke-linecap="butt">
      <path fill="none" d="M705.351 823.3193 L465.011 823.3193" clip-path="url(#clipPath2)"/>
      <path d="M457.011 823.3193 L469.011 828.3193 L466.011 823.3193 L469.011 818.3193 Z" clip-path="url(#clipPath2)" stroke="none"/>
      <text x="464" xml:space="preserve" y="857.4736" clip-path="url(#clipPath2)" font-family="sans-serif" stroke="none">1</text>
      <text x="692.375" xml:space="preserve" y="857.4736" clip-path="url(#clipPath2)" font-family="sans-serif" stroke="none">*</text>
      <path fill="none" d="M300.375 699.7661 L300.375 775.7918" clip-path="url(#clipPath2)"/>
      <path d="M300.375 692.7661 L305.375 699.7661 L300.375 706.7661 L295.375 699.7661 Z" clip-path="url(#clipPath2)" stroke="none"/>
      <text x="267.375" xml:space="preserve" y="765.9199" clip-path="url(#clipPath2)" font-family="sans-serif" stroke="none">*</text>
    </g>
    <g text-rendering="geometricPrecision" stroke-miterlimit="1.45" shape-rendering="geometricPrecision" font-family="sans-serif" transform="matrix(1,0,0,1,-128,-295) translate(304,719)" stroke-linecap="butt">
      <text x="0" xml:space="preserve" y="12" clip-path="url(#clipPath18)" stroke="none">does not contain</text>
      <text x="107" xml:space="preserve" y="12" clip-path="url(#clipPath18)" stroke="none"> </text>
      <text x="0" xml:space="preserve" y="27" clip-path="url(#clipPath18)" stroke="none">VCS-specific files ▼</text>
    </g>
    <g text-rendering="geometricPrecision" stroke-miterlimit="1.45" shape-rendering="geometricPrecision" transform="matrix(1,0,0,1,-128,-295)" stroke-linecap="butt">
      <path fill="none" d="M558.8948 394.1897 L764.6691 394.1897 L764.6691 455.9787" clip-path="url(#clipPath2)"/>
      <path d="M551.8948 394.1897 L558.8948 389.1897 L565.8948 394.1897 L558.8948 399.1897 Z" clip-path="url(#clipPath2)" stroke="none"/>
      <path d="M764.6691 463.9787 L769.6691 451.9787 L764.6691 454.9787 L759.6691 451.9787 Z" clip-path="url(#clipPath2)" stroke="none"/>
      <text x="718.798" xml:space="preserve" y="435.0271" clip-path="url(#clipPath2)" font-family="sans-serif" stroke="none">1..*</text>
      <text x="698.1906" xml:space="preserve" y="448.9958" clip-path="url(#clipPath2)" font-family="sans-serif" stroke="none">{ordered}</text>
    </g>
    <g text-rendering="geometricPrecision" stroke-miterlimit="1.45" shape-rendering="geometricPrecision" font-family="sans-serif" transform="matrix(1,0,0,1,-128,-295) translate(624,375)" stroke-linecap="butt">
      <text x="0" xml:space="preserve" y="12" clip-path="url(#clipPath19)" stroke="none">subsumes ▶</text>
    </g>
    <g text-rendering="geometricPrecision" stroke-miterlimit="1.45" shape-rendering="geometricPrecision" transform="matrix(1,0,0,1,-128,-295)" stroke-linecap="butt">
      <path fill="none" d="M300.375 515.0034 L300.375 582.9868" clip-path="url(#clipPath2)"/>
      <path d="M300.375 508.0034 L305.375 515.0034 L300.375 522.0034 L295.375 515.0034 Z" clip-path="url(#clipPath2)" stroke="none"/>
      <path d="M300.375 590.9868 L305.375 578.9868 L300.375 581.9868 L295.375 578.9868 Z" clip-path="url(#clipPath2)" stroke="none"/>
      <text x="258.9258" xml:space="preserve" y="581.1699" clip-path="url(#clipPath2)" font-family="sans-serif" stroke="none">1..2</text>
    </g>
    <g text-rendering="geometricPrecision" stroke-miterlimit="1.45" shape-rendering="geometricPrecision" font-family="sans-serif" transform="matrix(1,0,0,1,-128,-295) translate(304,542)" stroke-linecap="butt">
      <text x="0" xml:space="preserve" y="12" clip-path="url(#clipPath17)" stroke="none">predecessor &amp; current ▼</text>
    </g>
    <g text-rendering="geometricPrecision" stroke-miterlimit="1.45" shape-rendering="geometricPrecision" transform="matrix(1,0,0,1,-128,-295)" stroke-linecap="butt">
      <path fill="none" d="M492.4979 515.0143 L492.4979 670.2905 L697.3598 670.2905" clip-path="url(#clipPath2)"/>
      <path fill="white" d="M492.4979 508.0143 L497.4979 515.0143 L492.4979 522.0143 L487.4979 515.0143 Z" clip-path="url(#clipPath2)" stroke="none"/>
      <path fill="none" d="M492.4979 508.0143 L497.4979 515.0143 L492.4979 522.0143 L487.4979 515.0143 Z" clip-path="url(#clipPath2)"/>
      <path d="M705.3598 670.2905 L693.3598 665.2905 L696.3598 670.2905 L693.3598 675.2905 Z" clip-path="url(#clipPath2)" stroke="none"/>
      <text x="687.25" xml:space="preserve" y="663.4604" clip-path="url(#clipPath2)" font-family="sans-serif" stroke="none">*</text>
      <text x="496.4979" xml:space="preserve" y="531.2637" clip-path="url(#clipPath2)" font-family="sans-serif" stroke="none">*</text>
    </g>
    <g text-rendering="geometricPrecision" stroke-miterlimit="1.45" shape-rendering="geometricPrecision" font-family="sans-serif" transform="matrix(1,0,0,1,-128,-295) translate(512,636)" stroke-linecap="butt">
      <text x="0" xml:space="preserve" y="12" clip-path="url(#clipPath20)" stroke="none">computes changes based</text>
      <text x="163" xml:space="preserve" y="12" clip-path="url(#clipPath20)" stroke="none"> </text>
      <text x="0" xml:space="preserve" y="27" clip-path="url(#clipPath20)" stroke="none">on subsumed commits ▶</text>
    </g>
    <g text-rendering="geometricPrecision" stroke-miterlimit="1.45" shape-rendering="geometricPrecision" transform="matrix(1,0,0,1,-128,-295)" stroke-linecap="butt">
      <path fill="none" d="M558.8955 354.86 L987.6197 354.86" clip-path="url(#clipPath2)"/>
      <path fill="white" d="M551.8955 354.86 L558.8955 349.86 L565.8955 354.86 L558.8955 359.86 Z" clip-path="url(#clipPath2)" stroke="none"/>
      <path fill="none" d="M551.8955 354.86 L558.8955 349.86 L565.8955 354.86 L558.8955 359.86 Z" clip-path="url(#clipPath2)"/>
      <path d="M995.6197 354.86 L983.6197 349.86 L986.6197 354.86 L983.6197 359.86 Z" clip-path="url(#clipPath2)" stroke="none"/>
      <text x="982.625" xml:space="preserve" y="329.0143" clip-path="url(#clipPath2)" font-family="sans-serif" stroke="none">*</text>
      <text x="558.875" xml:space="preserve" y="329.0143" clip-path="url(#clipPath2)" font-family="sans-serif" stroke="none">*</text>
    </g>
    <g text-rendering="geometricPrecision" stroke-miterlimit="1.45" shape-rendering="geometricPrecision" font-family="sans-serif" transform="matrix(1,0,0,1,-128,-295) translate(696,320)" stroke-linecap="butt">
      <text x="0" xml:space="preserve" y="12" clip-path="url(#clipPath21)" stroke="none">computes issues based</text>
      <text x="149" xml:space="preserve" y="12" clip-path="url(#clipPath21)" stroke="none"> </text>
      <text x="0" xml:space="preserve" y="27" clip-path="url(#clipPath21)" stroke="none">on subsumed commits ▶</text>
    </g>
    <g text-rendering="geometricPrecision" stroke-miterlimit="1.45" shape-rendering="geometricPrecision" transform="matrix(1,0,0,1,-128,-295)" stroke-linecap="butt">
      <path fill="none" d="M577.3741 965.25 L460.998 965.25" clip-path="url(#clipPath2)"/>
    </g>
    <g stroke-linecap="butt" transform="matrix(1,0,0,1,-128,-295)" fill-opacity="0" fill="rgb(0,0,0)" text-rendering="geometricPrecision" shape-rendering="geometricPrecision" stroke="rgb(0,0,0)" stroke-opacity="0" stroke-miterlimit="1.45">
      <path d="M452.998 965.25 C452.998 963.0408 454.7888 961.25 456.998 961.25 C459.2071 961.25 460.998 963.0408 460.998 965.25 C460.998 967.4592 459.2071 969.25 456.998 969.25 C454.7888 969.25 452.998 967.4592 452.998 965.25 Z" stroke="none" clip-path="url(#clipPath2)"/>
    </g>
    <g text-rendering="geometricPrecision" stroke-miterlimit="1.45" shape-rendering="geometricPrecision" transform="matrix(1,0,0,1,-128,-295)" stroke-linecap="butt">
      <path fill="none" d="M452.998 965.25 C452.998 963.0408 454.7888 961.25 456.998 961.25 C459.2071 961.25 460.998 963.0408 460.998 965.25 C460.998 967.4592 459.2071 969.25 456.998 969.25 C454.7888 969.25 452.998 967.4592 452.998 965.25 Z" clip-path="url(#clipPath2)"/>
      <text x="564.375" xml:space="preserve" y="999.4043" clip-path="url(#clipPath2)" font-family="sans-serif" stroke="none">*</text>
      <text x="464" xml:space="preserve" y="999.4043" clip-path="url(#clipPath2)" font-family="sans-serif" stroke="none">1</text>
    </g>
    <g text-rendering="geometricPrecision" stroke-miterlimit="1.45" shape-rendering="geometricPrecision" font-family="sans-serif" transform="matrix(1,0,0,1,-128,-295) translate(461,946)" stroke-linecap="butt">
      <text x="0" xml:space="preserve" y="12" clip-path="url(#clipPath22)" stroke="none">maps offsets to ▶</text>
    </g>
    <g text-rendering="geometricPrecision" stroke-miterlimit="1.45" shape-rendering="geometricPrecision" transform="matrix(1,0,0,1,-128,-295)" stroke-linecap="butt">
      <path fill="none" d="M463.9818 893.4936 L939.3445 893.4936" clip-path="url(#clipPath2)"/>
      <path d="M456.9818 893.4936 L463.9818 888.4936 L470.9818 893.4936 L463.9818 898.4936 Z" clip-path="url(#clipPath2)" stroke="none"/>
      <text x="860.082" xml:space="preserve" y="927.6479" clip-path="url(#clipPath2)" font-family="sans-serif" stroke="none">* {ordered}</text>
    </g>
    <g text-rendering="geometricPrecision" stroke-miterlimit="1.45" shape-rendering="geometricPrecision" font-family="sans-serif" transform="matrix(1,0,0,1,-128,-295) translate(641,874)" stroke-linecap="butt">
      <text x="0" xml:space="preserve" y="12" clip-path="url(#clipPath23)" stroke="none">blame/annotate ▶</text>
    </g>
  </g>
</svg>
